SplineFontDB: 3.2
FontName: bold-Italic
FullName: Jet Impulse Bold Italic
FamilyName: Jet Impulse
Weight: Strong
Copyright: 
Version: 1.0
DefaultBaseFilename: Jet Impulse
ItalicAngle: 0
UnderlinePosition: 77
UnderlineWidth: 51
Ascent: 819
Descent: 205
InvalidEm: 0
sfntRevision: 0x00010000
LayerCount: 2
Layer: 0 1 "Sfondo" 1
Layer: 1 1 "Fore" 0
XUID: [1021 394 1952875658 19760]
StyleMap: 0x0021
FSType: 4
OS2Version: 2
OS2_WeightWidthSlopeOnly: 0
OS2_UseTypoMetrics: 0
CreationTime: 1379761891
ModificationTime: 1768530217
PfmFamily: 81
TTFWeight: 700
TTFWidth: 5
LineGap: 0
VLineGap: 0
Panose: 0 0 8 0 0 0 0 0 0 0
OS2TypoAscent: 576
OS2TypoAOffset: 0
OS2TypoDescent: -64
OS2TypoDOffset: 0
OS2TypoLinegap: 0
OS2WinAscent: 704
OS2WinAOffset: 0
OS2WinDescent: 64
OS2WinDOffset: 0
HheadAscent: 704
HheadAOffset: 0
HheadDescent: -64
HheadDOffset: 0
OS2SubXSize: 512
OS2SubYSize: 512
OS2SubXOff: 0
OS2SubYOff: -32
OS2SupXSize: 512
OS2SupYSize: 512
OS2SupXOff: 0
OS2SupYOff: 512
OS2StrikeYSize: 51
OS2StrikeYPos: 204
OS2CapHeight: 576
OS2XHeight: 384
OS2Vendor: 'FSTR'
OS2CodePages: 00000193.00000000
OS2UnicodeRanges: 80000003.0000000a.00000000.00000000
MarkAttachClasses: 1
DEI: 91125
ShortTable: maxp 16
  1
  0
  157
  52
  13
  0
  0
  2
  0
  0
  0
  0
  0
  0
  0
  0
EndShort
LangName: 1033 "" "" "Regular" "" "" "Version 1.0" "" "FontStruct is a trademark of FSI FontShop International GmbH" "http://fontstruct.com" "David Fens" "+IBoAxAD6-Nintendo DS BIOS+IBoAxAD5 was built with FontStruct+AAoA" "http://www.fontshop.com" "http://fontstruct.com/fontstructions/show/875576" "FontStruct Non-Commercial License" "" "" "" "" "" "Five big quacking zephyrs jolt my wax bed"
Encoding: UnicodeBmp
UnicodeInterp: none
NameList: AGL For New Fonts
DisplaySize: -48
AntiAlias: 1
FitToEm: 0
WinInfo: 60 20 4
BeginPrivate: 0
EndPrivate
BeginChars: 65539 71

StartChar: comma
Encoding: 44 44 3
Width: 165
VWidth: 1000
GlyphClass: 1
Flags: W
LayerCount: 2
Fore
SplineSet
113.326171875 56.63671875 m 0,0,1
 101.357421875 -11.2451171875 101.357421875 -11.2451171875 84.033203125 -44.375 c 128,-1,2
 66.7080078125 -77.5048828125 66.7080078125 -77.5048828125 37.90234375 -89.9462890625 c 128,-1,3
 9.0966796875 -102.387695312 9.0966796875 -102.387695312 -45.556640625 -102.387695312 c 1,4,5
 -41.67578125 -80.3759765625 -41.67578125 -80.3759765625 -31.9404296875 -71.0263671875 c 128,-1,6
 -22.2060546875 -61.67578125 -22.2060546875 -61.67578125 -10.4345703125 -60.365234375 c 128,-1,7
 1.3369140625 -59.0537109375 1.3369140625 -59.0537109375 13.31640625 -56.564453125 c 128,-1,8
 25.294921875 -54.076171875 25.294921875 -54.076171875 35.9296875 -39.623046875 c 128,-1,9
 46.564453125 -25.1708984375 46.564453125 -25.1708984375 51.7607421875 4.298828125 c 1,10,11
 30.2705078125 4.298828125 30.2705078125 4.298828125 17.4951171875 19.3173828125 c 128,-1,12
 4.71875 34.3349609375 4.71875 34.3349609375 8.6513671875 56.63671875 c 0,13,14
 12.37890625 77.7724609375 12.37890625 77.7724609375 30.7294921875 93.373046875 c 128,-1,15
 49.0810546875 108.973632812 49.0810546875 108.973632812 70.2177734375 108.973632812 c 0,16,17
 92.5185546875 108.973632812 92.5185546875 108.973632812 104.817382812 93.5498046875 c 128,-1,18
 117.115234375 78.1259765625 117.115234375 78.1259765625 113.326171875 56.63671875 c 0,0,1
EndSplineSet
Validated: 33
EndChar

StartChar: hyphen
Encoding: 45 45 4
Width: 430
VWidth: 1000
GlyphClass: 1
Flags: W
LayerCount: 2
Fore
SplineSet
83.76171875 162.479492188 m 2,0,1
 60.9775390625 162.479492188 60.9775390625 162.479492188 47.8994140625 177.37890625 c 128,-1,2
 34.822265625 192.278320312 34.822265625 192.278320312 38.76953125 214.666015625 c 0,3,4
 42.5126953125 235.895507812 42.5126953125 235.895507812 61.1279296875 251.374023438 c 128,-1,5
 79.7431640625 266.852539062 79.7431640625 266.852539062 102.166015625 266.852539062 c 2,6,-1
 365.10546875 266.852539062 l 2,7,8
 386.180664062 266.852539062 386.180664062 266.852539062 398.993164062 251.296875 c 128,-1,9
 411.805664062 235.741210938 411.805664062 235.741210938 408.08984375 214.666015625 c 0,10,11
 404.168945312 192.428710938 404.168945312 192.428710938 386.149414062 177.454101562 c 128,-1,12
 368.12890625 162.479492188 368.12890625 162.479492188 346.701171875 162.479492188 c 2,13,-1
 83.76171875 162.479492188 l 2,0,1
EndSplineSet
Validated: 33
EndChar

StartChar: period
Encoding: 46 46 5
Width: 166
VWidth: 1000
GlyphClass: 1
Flags: W
LayerCount: 2
Fore
SplineSet
55.0849609375 3.841796875 m 0,0,1
 34.0087890625 3.841796875 34.0087890625 3.841796875 21.1962890625 19.3974609375 c 128,-1,2
 8.3837890625 34.953125 8.3837890625 34.953125 12.099609375 56.0283203125 c 0,3,4
 16.0537109375 78.451171875 16.0537109375 78.451171875 34.3330078125 94.3369140625 c 128,-1,5
 52.6123046875 110.22265625 52.6123046875 110.22265625 73.8427734375 110.22265625 c 0,6,7
 96.23046875 110.22265625 96.23046875 110.22265625 108.360351562 94.517578125 c 128,-1,8
 120.490234375 78.8125 120.490234375 78.8125 116.47265625 56.0283203125 c 0,9,10
 112.694335938 34.6005859375 112.694335938 34.6005859375 95.0087890625 19.220703125 c 128,-1,11
 77.322265625 3.841796875 77.322265625 3.841796875 55.0849609375 3.841796875 c 0,0,1
EndSplineSet
Validated: 33
EndChar

StartChar: zero
Encoding: 48 48 6
Width: 599
VWidth: 1000
GlyphClass: 1
Flags: W
LayerCount: 2
Fore
SplineSet
506.584960938 513.806640625 m 1,0,-1
 142.543945312 202.604492188 l 1,1,-1
 192.038085938 483.296875 l 2,2,3
 195.534179688 503.12890625 195.534179688 503.12890625 214.974609375 519.654296875 c 128,-1,4
 234.4140625 536.180664062 234.4140625 536.180664062 254.24609375 536.180664062 c 2,5,-1
 466.9453125 536.180664062 l 2,6,7
 494.549804688 536.180664062 494.549804688 536.180664062 506.584960938 513.806640625 c 1,0,-1
326.138671875 643.983398438 m 2,8,9
 284.182617188 643.983398438 284.182617188 643.983398438 245.793945312 632.802734375 c 128,-1,10
 207.405273438 621.622070312 207.405273438 621.622070312 171.940429688 597.862304688 c 128,-1,11
 136.475585938 574.1015625 136.475585938 574.1015625 110.790039062 531.166015625 c 128,-1,12
 85.1044921875 488.23046875 85.1044921875 488.23046875 74.91015625 430.413085938 c 2,13,-1
 36.17578125 210.740234375 l 2,14,15
 26.365234375 155.100585938 26.365234375 155.100585938 37.16796875 113.49609375 c 128,-1,16
 47.9697265625 71.892578125 47.9697265625 71.892578125 75.0751953125 48.6494140625 c 128,-1,17
 102.180664062 25.40625 102.180664062 25.40625 136.765625 14.3388671875 c 128,-1,18
 171.350585938 3.2724609375 171.350585938 3.2724609375 213.1640625 3.2724609375 c 2,19,-1
 320.966796875 3.2724609375 l 2,20,21
 362.922851562 3.2724609375 362.922851562 3.2724609375 401.311523438 14.453125 c 128,-1,22
 439.700195312 25.6337890625 439.700195312 25.6337890625 475.165039062 49.3935546875 c 128,-1,23
 510.629882812 73.1533203125 510.629882812 73.1533203125 536.315429688 116.08984375 c 128,-1,24
 562 159.025390625 562 159.025390625 572.1953125 216.842773438 c 2,25,-1
 609.853515625 430.413085938 l 2,26,27
 620.047851562 488.23046875 620.047851562 488.23046875 609.50390625 531.166015625 c 128,-1,28
 598.959960938 574.1015625 598.959960938 574.1015625 571.875 597.862304688 c 128,-1,29
 544.7890625 621.622070312 544.7890625 621.622070312 510.342773438 632.802734375 c 128,-1,30
 475.897460938 643.983398438 475.897460938 643.983398438 433.94140625 643.983398438 c 2,31,-1
 326.138671875 643.983398438 l 2,8,9
140.51953125 133.448242188 m 1,32,-1
 504.561523438 444.650390625 l 1,33,-1
 455.067382812 163.958984375 l 2,34,35
 451.5703125 144.126953125 451.5703125 144.126953125 432.130859375 127.600585938 c 128,-1,36
 412.690429688 111.07421875 412.690429688 111.07421875 392.858398438 111.07421875 c 2,37,-1
 179.288085938 111.07421875 l 2,38,39
 152.555664062 111.07421875 152.555664062 111.07421875 140.51953125 133.448242188 c 1,32,-1
EndSplineSet
Validated: 41
EndChar

StartChar: one
Encoding: 49 49 7
Width: 275
VWidth: 1000
GlyphClass: 1
Flags: W
LayerCount: 2
Fore
SplineSet
114.23828125 645.598632812 m 1,0,-1
 328.200195312 645.598632812 l 1,1,-1
 215.018554688 3.7138671875 l 1,2,-1
 108.037109375 3.7138671875 l 1,3,-1
 202.354492188 538.618164062 l 1,4,-1
 95.3740234375 538.618164062 l 1,5,-1
 114.23828125 645.598632812 l 1,0,-1
EndSplineSet
Validated: 1
EndChar

StartChar: two
Encoding: 50 50 8
Width: 598
VWidth: 1000
GlyphClass: 1
Flags: W
LayerCount: 2
Fore
SplineSet
97.765625 537.618164062 m 1,0,-1
 472.198242188 537.618164062 l 2,1,2
 490.970703125 537.618164062 490.970703125 537.618164062 501.5078125 529.677734375 c 128,-1,3
 512.043945312 521.73828125 512.043945312 521.73828125 513.763671875 506.694335938 c 128,-1,4
 515.482421875 491.649414062 515.482421875 491.649414062 514.837890625 482.038085938 c 128,-1,5
 514.193359375 472.426757812 514.193359375 472.426757812 511.540039062 457.381835938 c 128,-1,6
 508.887695312 442.337890625 508.887695312 442.337890625 506.142578125 432.7265625 c 128,-1,7
 503.3984375 423.114257812 503.3984375 423.114257812 496.373046875 408.0703125 c 128,-1,8
 489.348632812 393.026367188 489.348632812 393.026367188 476.012695312 385.086914062 c 128,-1,9
 462.67578125 377.146484375 462.67578125 377.146484375 443.90234375 377.146484375 c 2,10,-1
 229.940429688 377.146484375 l 2,11,12
 208.627929688 377.146484375 208.627929688 377.146484375 180.255859375 366.731445312 c 128,-1,13
 151.8828125 356.31640625 151.8828125 356.31640625 122.849609375 337.4140625 c 128,-1,14
 93.81640625 318.512695312 93.81640625 318.512695312 70.828125 286.495117188 c 128,-1,15
 47.83984375 254.478515625 47.83984375 254.478515625 41.1748046875 216.674804688 c 2,16,-1
 3.447265625 2.7138671875 l 1,17,-1
 377.879882812 2.7138671875 l 2,18,19
 415.168945312 2.7138671875 415.168945312 2.7138671875 445.646484375 15.2509765625 c 128,-1,20
 476.124023438 27.787109375 476.124023438 27.787109375 491.422851562 41.99609375 c 128,-1,21
 506.72265625 56.2041015625 506.72265625 56.2041015625 527.052734375 78.76953125 c 128,-1,22
 547.3828125 101.334960938 547.3828125 101.334960938 557.21484375 109.693359375 c 1,23,-1
 129.291015625 109.693359375 l 1,24,-1
 148.155273438 216.674804688 l 2,25,26
 151.69140625 236.732421875 151.69140625 236.732421875 171.354492188 253.44921875 c 128,-1,27
 191.018554688 270.165039062 191.018554688 270.165039062 211.077148438 270.165039062 c 2,28,-1
 425.0390625 270.165039062 l 2,29,30
 585.510742188 270.165039062 585.510742188 270.165039062 613.805664062 430.63671875 c 2,31,-1
 623.23828125 484.127929688 l 2,32,33
 629.903320312 521.930664062 629.903320312 521.930664062 618.206054688 553.948242188 c 128,-1,34
 606.508789062 585.96484375 606.508789062 585.96484375 584.141601562 604.8671875 c 128,-1,35
 561.7734375 623.768554688 561.7734375 623.768554688 537.07421875 634.18359375 c 128,-1,36
 512.374023438 644.598632812 512.374023438 644.598632812 491.061523438 644.598632812 c 2,37,-1
 277.099609375 644.598632812 l 2,38,39
 239.810546875 644.598632812 239.810546875 644.598632812 209.333007812 632.061523438 c 128,-1,40
 178.85546875 619.525390625 178.85546875 619.525390625 163.556640625 605.31640625 c 128,-1,41
 148.2578125 591.108398438 148.2578125 591.108398438 127.926757812 568.541992188 c 128,-1,42
 107.596679688 545.975585938 107.596679688 545.975585938 97.765625 537.618164062 c 1,0,-1
EndSplineSet
Validated: 41
EndChar

StartChar: three
Encoding: 51 51 9
Width: 597
VWidth: 1000
GlyphClass: 1
Flags: W
LayerCount: 2
Fore
SplineSet
494.825195312 377.146484375 m 1,0,-1
 66.90234375 377.146484375 l 1,1,-1
 48.0390625 270.165039062 l 1,2,-1
 475.961914062 270.165039062 l 1,3,-1
 457.09765625 163.184570312 l 2,4,5
 453.561523438 143.125976562 453.561523438 143.125976562 433.897460938 126.409179688 c 128,-1,6
 414.234375 109.693359375 414.234375 109.693359375 394.17578125 109.693359375 c 2,7,-1
 19.7431640625 109.693359375 l 1,8,-1
 0.8798828125 2.7138671875 l 1,9,-1
 375.3125 2.7138671875 l 2,10,11
 535.78515625 2.7138671875 535.78515625 2.7138671875 564.079101562 163.184570312 c 2,12,-1
 611.23828125 430.63671875 l 2,13,14
 625.38671875 510.873046875 625.38671875 510.873046875 570.3125 577.735351562 c 128,-1,15
 515.239257812 644.598632812 515.239257812 644.598632812 435.00390625 644.598632812 c 2,16,-1
 114.061523438 644.598632812 l 1,17,-1
 95.1982421875 537.618164062 l 1,18,-1
 416.140625 537.618164062 l 2,19,20
 456.2578125 537.618164062 456.2578125 537.618164062 483.794921875 504.186523438 c 128,-1,21
 511.331054688 470.754882812 511.331054688 470.754882812 504.256835938 430.63671875 c 2,22,-1
 494.825195312 377.146484375 l 1,0,-1
EndSplineSet
Validated: 41
EndChar

StartChar: four
Encoding: 52 52 10
Width: 595
VWidth: 1000
GlyphClass: 1
Flags: W
LayerCount: 2
Fore
SplineSet
164.451171875 323.65625 m 2,0,-1
 221.041992188 644.598632812 l 1,1,-1
 114.061523438 644.598632812 l 1,2,-1
 57.470703125 323.65625 l 2,3,4
 50.8046875 285.852539062 50.8046875 285.852539062 62.501953125 253.8359375 c 128,-1,5
 74.19921875 221.818359375 74.19921875 221.818359375 96.56640625 202.916992188 c 128,-1,6
 118.93359375 184.014648438 118.93359375 184.014648438 143.633789062 173.599609375 c 128,-1,7
 168.333007812 163.184570312 168.333007812 163.184570312 189.645507812 163.184570312 c 2,8,-1
 457.09765625 163.184570312 l 1,9,-1
 428.802734375 2.7138671875 l 1,10,-1
 535.784179688 2.7138671875 l 1,11,-1
 648.965820312 644.598632812 l 1,12,-1
 541.984375 644.598632812 l 1,13,-1
 475.961914062 270.165039062 l 1,14,-1
 208.509765625 270.165039062 l 2,15,16
 188.451171875 270.165039062 188.451171875 270.165039062 174.682617188 286.880859375 c 128,-1,17
 160.9140625 303.59765625 160.9140625 303.59765625 164.451171875 323.65625 c 2,0,-1
EndSplineSet
Validated: 41
EndChar

StartChar: five
Encoding: 53 53 11
Width: 598
VWidth: 1000
GlyphClass: 1
Flags: W
LayerCount: 2
Fore
SplineSet
203.921875 538.618164062 m 1,0,-1
 631.845703125 538.618164062 l 1,1,-1
 650.709960938 645.598632812 l 1,2,-1
 115.805664062 645.598632812 l 1,3,-1
 59.21484375 324.65625 l 1,4,-1
 433.647460938 324.65625 l 2,5,6
 453.706054688 324.65625 453.706054688 324.65625 467.474609375 307.940429688 c 128,-1,7
 481.2421875 291.224609375 481.2421875 291.224609375 477.705078125 271.165039062 c 2,8,-1
 458.841796875 164.184570312 l 2,9,10
 455.3046875 144.125976562 455.3046875 144.125976562 435.641601562 127.409179688 c 128,-1,11
 415.978515625 110.693359375 415.978515625 110.693359375 395.919921875 110.693359375 c 2,12,-1
 21.4873046875 110.693359375 l 1,13,14
 28.37109375 102.3359375 28.37109375 102.3359375 40.7431640625 79.76953125 c 128,-1,15
 53.1162109375 57.2041015625 53.1162109375 57.2041015625 63.404296875 42.99609375 c 128,-1,16
 73.693359375 28.787109375 73.693359375 28.787109375 99.7490234375 16.2509765625 c 128,-1,17
 125.805664062 3.7138671875 125.805664062 3.7138671875 163.094726562 3.7138671875 c 2,18,-1
 377.056640625 3.7138671875 l 2,19,20
 398.369140625 3.7138671875 398.369140625 3.7138671875 426.741210938 14.12890625 c 128,-1,21
 455.114257812 24.544921875 455.114257812 24.544921875 484.147460938 43.4462890625 c 128,-1,22
 513.181640625 62.34765625 513.181640625 62.34765625 536.168945312 94.365234375 c 128,-1,23
 559.157226562 126.381835938 559.157226562 126.381835938 565.823242188 164.184570312 c 2,24,-1
 584.686523438 271.165039062 l 2,25,26
 591.352539062 308.96875 591.352539062 308.96875 579.655273438 340.985351562 c 128,-1,27
 567.958007812 373.002929688 567.958007812 373.002929688 545.590820312 391.904296875 c 128,-1,28
 523.22265625 410.806640625 523.22265625 410.806640625 498.522460938 421.221679688 c 128,-1,29
 473.823242188 431.63671875 473.823242188 431.63671875 452.510742188 431.63671875 c 2,30,-1
 185.05859375 431.63671875 l 1,31,-1
 203.921875 538.618164062 l 1,0,-1
EndSplineSet
Validated: 41
EndChar

StartChar: six
Encoding: 54 54 12
Width: 601
VWidth: 1000
GlyphClass: 1
Flags: W
LayerCount: 2
Fore
SplineSet
211.913085938 270.55859375 m 2,0,1
 192.01953125 270.55859375 192.01953125 270.55859375 172.51953125 253.981445312 c 128,-1,2
 153.018554688 237.403320312 153.018554688 237.403320312 149.510742188 217.510742188 c 2,3,-1
 140.157226562 164.461914062 l 2,4,5
 136.649414062 144.568359375 136.649414062 144.568359375 150.303710938 127.991210938 c 128,-1,6
 163.958007812 111.413085938 163.958007812 111.413085938 183.8515625 111.413085938 c 2,7,-1
 398.086914062 111.413085938 l 2,8,9
 417.979492188 111.413085938 417.979492188 111.413085938 437.48046875 127.991210938 c 128,-1,10
 456.98046875 144.568359375 456.98046875 144.568359375 460.48828125 164.461914062 c 2,11,-1
 469.841796875 217.510742188 l 2,12,13
 480.046875 275.381835938 480.046875 275.381835938 426.1484375 270.55859375 c 1,14,-1
 211.913085938 270.55859375 l 2,0,1
445.215820312 378.696289062 m 2,15,16
 466.42578125 378.696289062 466.42578125 378.696289062 491.170898438 368.32421875 c 128,-1,17
 515.916015625 357.952148438 515.916015625 357.952148438 538.491210938 339.048828125 c 128,-1,18
 561.065429688 320.145507812 561.065429688 320.145507812 572.889648438 287.922851562 c 128,-1,19
 584.713867188 255.69921875 584.713867188 255.69921875 577.979492188 217.510742188 c 2,20,-1
 568.625976562 164.461914062 l 2,21,22
 561.892578125 126.272460938 561.892578125 126.272460938 538.705078125 94.0498046875 c 128,-1,23
 515.516601562 61.826171875 515.516601562 61.826171875 486.276367188 42.9228515625 c 128,-1,24
 457.03515625 24.01953125 457.03515625 24.01953125 428.631835938 13.6474609375 c 128,-1,25
 400.229492188 3.275390625 400.229492188 3.275390625 379.018554688 3.275390625 c 2,26,-1
 164.783203125 3.275390625 l 2,27,28
 143.573242188 3.275390625 143.573242188 3.275390625 118.828125 13.6474609375 c 128,-1,29
 94.0830078125 24.01953125 94.0830078125 24.01953125 71.5087890625 42.9228515625 c 128,-1,30
 48.93359375 61.826171875 48.93359375 61.826171875 37.109375 94.0498046875 c 128,-1,31
 25.2861328125 126.272460938 25.2861328125 126.272460938 32.01953125 164.461914062 c 2,32,-1
 79.1484375 431.745117188 l 2,33,34
 89.375 489.7421875 89.375 489.7421875 115.140625 532.811523438 c 128,-1,35
 140.905273438 575.880859375 140.905273438 575.880859375 176.48046875 599.71484375 c 128,-1,36
 212.055664062 623.548828125 212.055664062 623.548828125 250.563476562 634.764648438 c 128,-1,37
 289.072265625 645.979492188 289.072265625 645.979492188 331.158203125 645.979492188 c 2,38,-1
 653.530273438 645.979492188 l 1,39,-1
 634.462890625 537.841796875 l 1,40,-1
 312.090820312 537.841796875 l 2,41,42
 272.3046875 537.841796875 272.3046875 537.841796875 233.302734375 504.686523438 c 128,-1,43
 194.301757812 471.53125 194.301757812 471.53125 187.286132812 431.745117188 c 2,44,-1
 177.932617188 378.696289062 l 1,45,-1
 445.215820312 378.696289062 l 2,15,16
EndSplineSet
Validated: 33
EndChar

StartChar: seven
Encoding: 55 55 13
Width: 545
VWidth: 1000
GlyphClass: 1
Flags: W
LayerCount: 2
Fore
SplineSet
417.140625 537.618164062 m 1,0,-1
 96.1982421875 537.618164062 l 1,1,-1
 115.061523438 644.598632812 l 1,2,-1
 596.475585938 644.598632812 l 1,3,-1
 577.612304688 537.618164062 l 1,4,5
 520.69921875 511.467773438 520.69921875 511.467773438 455.473632812 424.693359375 c 128,-1,6
 390.249023438 337.919921875 390.249023438 337.919921875 339.012695312 222.619140625 c 128,-1,7
 287.776367188 107.317382812 287.776367188 107.317382812 269.33203125 2.7138671875 c 1,8,-1
 162.350585938 2.7138671875 l 1,9,10
 188.288085938 149.811523438 188.288085938 149.811523438 275.185546875 320.313476562 c 128,-1,11
 362.083984375 490.814453125 362.083984375 490.814453125 417.140625 537.618164062 c 1,0,-1
EndSplineSet
Validated: 1
EndChar

StartChar: eight
Encoding: 56 56 14
Width: 599
VWidth: 1000
GlyphClass: 1
Flags: W
LayerCount: 2
Fore
SplineSet
377.850585938 3.2724609375 m 2,0,1
 398.995117188 3.2724609375 398.995117188 3.2724609375 427.310546875 13.6123046875 c 128,-1,2
 455.625 23.9521484375 455.625 23.9521484375 484.775390625 42.796875 c 128,-1,3
 513.92578125 61.6416015625 513.92578125 61.6416015625 537.041992188 93.7646484375 c 128,-1,4
 560.157226562 125.887695312 560.157226562 125.887695312 566.870117188 163.958007812 c 2,5,-1
 576.1953125 216.842773438 l 2,6,7
 583.249023438 256.846679688 583.249023438 256.846679688 555.750976562 290.74609375 c 128,-1,8
 528.252929688 324.64453125 528.252929688 324.64453125 487.400390625 324.64453125 c 1,9,10
 528.419921875 324.64453125 528.419921875 324.64453125 567.625 357.61328125 c 128,-1,11
 606.830078125 390.58203125 606.830078125 390.58203125 613.853515625 430.413085938 c 2,12,-1
 623.178710938 483.296875 l 2,13,14
 629.890625 521.3671875 629.890625 521.3671875 618.103515625 553.490234375 c 128,-1,15
 606.31640625 585.61328125 606.31640625 585.61328125 583.811523438 604.458007812 c 128,-1,16
 561.306640625 623.302734375 561.306640625 623.302734375 536.638671875 633.643554688 c 128,-1,17
 511.969726562 643.983398438 511.969726562 643.983398438 490.825195312 643.983398438 c 2,18,-1
 277.254882812 643.983398438 l 2,19,20
 256.110351562 643.983398438 256.110351562 643.983398438 227.794921875 633.643554688 c 128,-1,21
 199.479492188 623.302734375 199.479492188 623.302734375 170.330078125 604.458007812 c 128,-1,22
 141.1796875 585.61328125 141.1796875 585.61328125 118.063476562 553.490234375 c 128,-1,23
 94.947265625 521.3671875 94.947265625 521.3671875 88.2353515625 483.296875 c 2,24,-1
 78.91015625 430.413085938 l 2,25,26
 71.88671875 390.58203125 71.88671875 390.58203125 99.46484375 357.61328125 c 128,-1,27
 127.043945312 324.64453125 127.043945312 324.64453125 168.0625 324.64453125 c 1,28,29
 127.2109375 324.64453125 127.2109375 324.64453125 87.7587890625 290.74609375 c 128,-1,30
 48.3056640625 256.846679688 48.3056640625 256.846679688 41.251953125 216.842773438 c 2,31,-1
 31.9267578125 163.958007812 l 2,32,33
 25.2138671875 125.887695312 25.2138671875 125.887695312 37.0009765625 93.7646484375 c 128,-1,34
 48.7890625 61.6416015625 48.7890625 61.6416015625 71.2939453125 42.796875 c 128,-1,35
 93.7978515625 23.9521484375 93.7978515625 23.9521484375 118.466796875 13.6123046875 c 128,-1,36
 143.135742188 3.2724609375 143.135742188 3.2724609375 164.280273438 3.2724609375 c 2,37,-1
 377.850585938 3.2724609375 l 2,0,1
183.288085938 111.07421875 m 2,38,39
 163.45703125 111.07421875 163.45703125 111.07421875 149.844726562 127.600585938 c 128,-1,40
 136.232421875 144.126953125 136.232421875 144.126953125 139.729492188 163.958007812 c 2,41,-1
 149.0546875 216.842773438 l 2,42,43
 152.551757812 236.673828125 152.551757812 236.673828125 171.991210938 253.200195312 c 128,-1,44
 191.431640625 269.7265625 191.431640625 269.7265625 211.263671875 269.7265625 c 2,45,-1
 424.833984375 269.7265625 l 2,46,47
 444.665039062 269.7265625 444.665039062 269.7265625 458.27734375 253.200195312 c 128,-1,48
 471.889648438 236.673828125 471.889648438 236.673828125 468.392578125 216.842773438 c 2,49,-1
 459.067382812 163.958007812 l 2,50,51
 455.5703125 144.126953125 455.5703125 144.126953125 436.130859375 127.600585938 c 128,-1,52
 416.690429688 111.07421875 416.690429688 111.07421875 396.858398438 111.07421875 c 2,53,-1
 183.288085938 111.07421875 l 2,38,39
471.81640625 536.180664062 m 2,54,55
 491.6484375 536.180664062 491.6484375 536.180664062 505.260742188 519.654296875 c 128,-1,56
 518.872070312 503.12890625 518.872070312 503.12890625 515.375976562 483.296875 c 2,57,-1
 506.05078125 430.413085938 l 2,58,59
 502.553710938 410.581054688 502.553710938 410.581054688 483.11328125 394.0546875 c 128,-1,60
 463.673828125 377.528320312 463.673828125 377.528320312 443.841796875 377.528320312 c 2,61,-1
 230.271484375 377.528320312 l 2,62,63
 210.439453125 377.528320312 210.439453125 377.528320312 196.828125 394.0546875 c 128,-1,64
 183.215820312 410.581054688 183.215820312 410.581054688 186.712890625 430.413085938 c 2,65,-1
 196.038085938 483.296875 l 2,66,67
 199.534179688 503.12890625 199.534179688 503.12890625 218.974609375 519.654296875 c 128,-1,68
 238.4140625 536.180664062 238.4140625 536.180664062 258.24609375 536.180664062 c 2,69,-1
 471.81640625 536.180664062 l 2,54,55
EndSplineSet
Validated: 1065
EndChar

StartChar: nine
Encoding: 57 57 15
Width: 602
VWidth: 1000
GlyphClass: 1
Flags: W
LayerCount: 2
Fore
SplineSet
445.215820312 378.696289062 m 2,0,1
 465.109375 378.696289062 465.109375 378.696289062 484.609375 395.274414062 c 128,-1,2
 504.109375 411.8515625 504.109375 411.8515625 507.6171875 431.745117188 c 2,3,-1
 516.971679688 484.793945312 l 2,4,5
 520.479492188 504.6875 520.479492188 504.6875 506.825195312 521.264648438 c 128,-1,6
 493.170898438 537.841796875 493.170898438 537.841796875 473.27734375 537.841796875 c 2,7,-1
 259.041992188 537.841796875 l 2,8,9
 239.1484375 537.841796875 239.1484375 537.841796875 219.6484375 521.264648438 c 128,-1,10
 200.1484375 504.6875 200.1484375 504.6875 196.640625 484.793945312 c 2,11,-1
 187.286132812 431.745117188 l 2,12,13
 177.08203125 373.874023438 177.08203125 373.874023438 230.98046875 378.696289062 c 1,14,-1
 445.215820312 378.696289062 l 2,0,1
211.913085938 270.55859375 m 2,15,16
 190.702148438 270.55859375 190.702148438 270.55859375 165.95703125 280.930664062 c 128,-1,17
 141.211914062 291.302734375 141.211914062 291.302734375 118.637695312 310.206054688 c 128,-1,18
 96.0634765625 329.109375 96.0634765625 329.109375 84.2392578125 361.333007812 c 128,-1,19
 72.4150390625 393.555664062 72.4150390625 393.555664062 79.1484375 431.745117188 c 2,20,-1
 88.5029296875 484.793945312 l 2,21,22
 95.236328125 522.983398438 95.236328125 522.983398438 118.423828125 555.206054688 c 128,-1,23
 141.611328125 587.428710938 141.611328125 587.428710938 170.852539062 606.33203125 c 128,-1,24
 200.09375 625.235351562 200.09375 625.235351562 228.49609375 635.607421875 c 128,-1,25
 256.899414062 645.979492188 256.899414062 645.979492188 278.109375 645.979492188 c 2,26,-1
 492.344726562 645.979492188 l 2,27,28
 513.555664062 645.979492188 513.555664062 645.979492188 538.30078125 635.607421875 c 128,-1,29
 563.045898438 625.235351562 563.045898438 625.235351562 585.620117188 606.33203125 c 128,-1,30
 608.1953125 587.428710938 608.1953125 587.428710938 620.018554688 555.206054688 c 128,-1,31
 631.842773438 522.983398438 631.842773438 522.983398438 625.109375 484.793945312 c 2,32,-1
 577.979492188 217.509765625 l 2,33,34
 567.752929688 159.512695312 567.752929688 159.512695312 541.98828125 116.443359375 c 128,-1,35
 516.22265625 73.3740234375 516.22265625 73.3740234375 480.647460938 49.5400390625 c 128,-1,36
 445.073242188 25.7060546875 445.073242188 25.7060546875 406.564453125 14.490234375 c 128,-1,37
 368.056640625 3.275390625 368.056640625 3.275390625 325.969726562 3.275390625 c 2,38,-1
 3.59765625 3.275390625 l 1,39,-1
 22.666015625 111.413085938 l 1,40,-1
 345.038085938 111.413085938 l 2,41,42
 384.82421875 111.413085938 384.82421875 111.413085938 423.825195312 144.568359375 c 128,-1,43
 462.827148438 177.723632812 462.827148438 177.723632812 469.841796875 217.509765625 c 2,44,-1
 479.196289062 270.55859375 l 1,45,-1
 211.913085938 270.55859375 l 2,15,16
EndSplineSet
Validated: 33
EndChar

StartChar: colon
Encoding: 58 58 16
Width: 168
VWidth: 1000
GlyphClass: 1
Flags: W
LayerCount: 2
Fore
SplineSet
55.796875 3.607421875 m 0,0,1
 33.30859375 3.607421875 33.30859375 3.607421875 20.11328125 19.1318359375 c 128,-1,2
 6.91796875 34.65625 6.91796875 34.65625 10.671875 55.94921875 c 0,3,4
 14.6650390625 78.59765625 14.6650390625 78.59765625 33.314453125 94.4501953125 c 128,-1,5
 51.962890625 110.303710938 51.962890625 110.303710938 74.6103515625 110.303710938 c 0,6,7
 95.904296875 110.303710938 95.904296875 110.303710938 108.619140625 94.37109375 c 128,-1,8
 121.333984375 78.4384765625 121.333984375 78.4384765625 117.368164062 55.94921875 c 0,9,10
 113.640625 34.8115234375 113.640625 34.8115234375 95.2880859375 19.208984375 c 128,-1,11
 76.935546875 3.607421875 76.935546875 3.607421875 55.796875 3.607421875 c 0,0,1
111.52734375 319.670898438 m 0,12,13
 89.0390625 319.670898438 89.0390625 319.670898438 75.84375 335.1953125 c 128,-1,14
 62.6474609375 350.719726562 62.6474609375 350.719726562 66.40234375 372.012695312 c 0,15,16
 70.3955078125 394.66015625 70.3955078125 394.66015625 89.044921875 410.513671875 c 128,-1,17
 107.693359375 426.3671875 107.693359375 426.3671875 130.340820312 426.3671875 c 0,18,19
 151.633789062 426.3671875 151.633789062 426.3671875 164.349609375 410.434570312 c 128,-1,20
 177.064453125 394.500976562 177.064453125 394.500976562 173.098632812 372.012695312 c 0,21,22
 169.37109375 350.874023438 169.37109375 350.874023438 151.018554688 335.272460938 c 128,-1,23
 132.666015625 319.670898438 132.666015625 319.670898438 111.52734375 319.670898438 c 0,12,13
EndSplineSet
Validated: 33
EndChar

StartChar: semicolon
Encoding: 59 59 17
Width: 164
VWidth: 1000
GlyphClass: 1
Flags: W
LayerCount: 2
Fore
SplineSet
112.499023438 56.310546875 m 0,0,1
 100.5546875 -11.4326171875 100.5546875 -11.4326171875 83.2646484375 -44.4951171875 c 128,-1,2
 65.9755859375 -77.5576171875 65.9755859375 -77.5576171875 37.228515625 -89.9736328125 c 128,-1,3
 8.482421875 -102.389648438 8.482421875 -102.389648438 -46.0595703125 -102.389648438 c 1,4,5
 -42.1865234375 -80.4228515625 -42.1865234375 -80.4228515625 -32.4716796875 -71.091796875 c 128,-1,6
 -22.7568359375 -61.7607421875 -22.7568359375 -61.7607421875 -11.009765625 -60.4521484375 c 128,-1,7
 0.73828125 -59.14453125 0.73828125 -59.14453125 12.693359375 -56.66015625 c 128,-1,8
 24.6474609375 -54.1767578125 24.6474609375 -54.1767578125 35.259765625 -39.7529296875 c 128,-1,9
 45.873046875 -25.330078125 45.873046875 -25.330078125 51.0595703125 4.080078125 c 1,10,11
 28.4599609375 4.080078125 28.4599609375 4.080078125 16.2568359375 18.8955078125 c 128,-1,12
 4.0537109375 33.7109375 4.0537109375 33.7109375 8.0380859375 56.310546875 c 0,13,14
 11.8203125 77.755859375 11.8203125 77.755859375 29.521484375 93.1484375 c 128,-1,15
 47.2216796875 108.541015625 47.2216796875 108.541015625 69.478515625 108.541015625 c 0,16,17
 90.5712890625 108.541015625 90.5712890625 108.541015625 103.39453125 92.9716796875 c 128,-1,18
 116.21875 77.4033203125 116.21875 77.4033203125 112.499023438 56.310546875 c 0,0,1
106.670898438 319.471679688 m 0,19,20
 84.4140625 319.471679688 84.4140625 319.471679688 72.142578125 334.86328125 c 128,-1,21
 59.869140625 350.255859375 59.869140625 350.255859375 63.650390625 371.702148438 c 0,22,23
 67.6708984375 394.504882812 67.6708984375 394.504882812 85.353515625 410.22265625 c 128,-1,24
 103.037109375 425.94140625 103.037109375 425.94140625 125.444335938 425.94140625 c 0,25,26
 146.69140625 425.94140625 146.69140625 425.94140625 159.379882812 410.041992188 c 128,-1,27
 172.068359375 394.142578125 172.068359375 394.142578125 168.111328125 371.702148438 c 0,28,29
 164.391601562 350.608398438 164.391601562 350.608398438 146.077148438 335.040039062 c 128,-1,30
 127.763671875 319.471679688 127.763671875 319.471679688 106.670898438 319.471679688 c 0,19,20
EndSplineSet
Validated: 33
EndChar

StartChar: equal
Encoding: 61 61 18
Width: 434
VWidth: 1000
GlyphClass: 1
Flags: W
LayerCount: 2
Fore
SplineSet
74.0439453125 99.7890625 m 2,0,1
 51.19140625 99.7890625 51.19140625 99.7890625 38.0751953125 114.732421875 c 128,-1,2
 24.958984375 129.676757812 24.958984375 129.676757812 28.9189453125 152.130859375 c 0,3,4
 32.6728515625 173.423828125 32.6728515625 173.423828125 51.3427734375 188.948242188 c 128,-1,5
 70.013671875 204.47265625 70.013671875 204.47265625 92.501953125 204.47265625 c 2,6,-1
 356.223632812 204.47265625 l 2,7,8
 377.362304688 204.47265625 377.362304688 204.47265625 390.212890625 188.87109375 c 128,-1,9
 403.063476562 173.268554688 403.063476562 173.268554688 399.336914062 152.130859375 c 0,10,11
 395.403320312 129.827148438 395.403320312 129.827148438 377.331054688 114.80859375 c 128,-1,12
 359.2578125 99.7890625 359.2578125 99.7890625 337.765625 99.7890625 c 2,13,-1
 74.0439453125 99.7890625 l 2,0,1
110.9609375 309.15625 m 2,14,15
 88.4716796875 309.15625 88.4716796875 309.15625 75.2763671875 324.680664062 c 128,-1,16
 62.0810546875 340.205078125 62.0810546875 340.205078125 65.8359375 361.498046875 c 0,17,18
 69.8291015625 384.145507812 69.8291015625 384.145507812 88.4775390625 399.999023438 c 128,-1,19
 107.126953125 415.852539062 107.126953125 415.852539062 129.774414062 415.852539062 c 2,20,-1
 393.49609375 415.852539062 l 2,21,22
 414.7890625 415.852539062 414.7890625 415.852539062 427.50390625 399.919921875 c 128,-1,23
 440.21875 383.986328125 440.21875 383.986328125 436.25390625 361.498046875 c 0,24,25
 432.526367188 340.359375 432.526367188 340.359375 414.173828125 324.7578125 c 128,-1,26
 395.821289062 309.15625 395.821289062 309.15625 374.682617188 309.15625 c 2,27,-1
 110.9609375 309.15625 l 2,14,15
EndSplineSet
Validated: 33
EndChar

StartChar: A
Encoding: 65 65 19
Width: 597
VWidth: 1000
GlyphClass: 1
Flags: W
LayerCount: 2
Fore
SplineSet
193.501953125 217.208007812 m 1,0,-1
 125.083007812 82.9638671875 l 1,1,-1
 111.095703125 3.6376953125 l 1,2,-1
 3.2939453125 3.6376953125 l 1,3,-1
 12.6181640625 56.521484375 l 1,4,-1
 317.634765625 644.34765625 l 1,5,-1
 449.844726562 644.34765625 l 1,6,-1
 547.560546875 56.521484375 l 1,7,-1
 538.236328125 3.6376953125 l 1,8,-1
 430.43359375 3.6376953125 l 1,9,-1
 444.420898438 82.9638671875 l 1,10,-1
 423.34375 217.208007812 l 1,11,-1
 193.501953125 217.208007812 l 1,0,-1
247.087890625 325.009765625 m 1,12,-1
 407.7734375 325.009765625 l 1,13,-1
 382.864257812 483.662109375 l 1,14,-1
 325.912109375 483.662109375 l 1,15,-1
 247.087890625 325.009765625 l 1,12,-1
EndSplineSet
Validated: 1
EndChar

StartChar: B
Encoding: 66 66 20
Width: 600
VWidth: 1000
GlyphClass: 1
Flags: W
LayerCount: 2
Fore
SplineSet
116.568359375 643.983398438 m 1,0,-1
 3.59375 3.2734375 l 1,1,-1
 324.96875 3.2734375 l 2,2,3
 442.209960938 3.2734375 442.209960938 3.2734375 497.1796875 41.8779296875 c 128,-1,4
 552.149414062 80.4814453125 552.149414062 80.4814453125 566.868164062 163.958007812 c 0,5,6
 572.39453125 195.297851562 572.39453125 195.297851562 572.529296875 218.067382812 c 128,-1,7
 572.6640625 240.8359375 572.6640625 240.8359375 570.71875 254.587890625 c 128,-1,8
 568.774414062 268.340820312 568.774414062 268.340820312 558.056640625 282.340820312 c 128,-1,9
 547.33984375 296.341796875 547.33984375 296.341796875 540.225585938 302.752929688 c 128,-1,10
 533.112304688 309.1640625 533.112304688 309.1640625 513.844726562 324.642578125 c 1,11,12
 543.172851562 342.138671875 543.172851562 342.138671875 555.272460938 350.76171875 c 128,-1,13
 567.372070312 359.385742188 567.372070312 359.385742188 583.45703125 377.280273438 c 128,-1,14
 599.54296875 395.173828125 599.54296875 395.173828125 607.931640625 419.79296875 c 128,-1,15
 616.3203125 444.412109375 616.3203125 444.412109375 623.176757812 483.297851562 c 0,16,17
 632.245117188 534.7265625 632.245117188 534.7265625 606.97265625 572.260742188 c 128,-1,18
 581.701171875 609.794921875 581.701171875 609.794921875 537.33203125 626.888671875 c 128,-1,19
 492.961914062 643.983398438 492.961914062 643.983398438 437.943359375 643.983398438 c 2,20,-1
 116.568359375 643.983398438 l 1,0,-1
205.36328125 536.1796875 m 1,21,-1
 418.934570312 536.1796875 l 2,22,23
 461.903320312 536.1796875 461.903320312 536.1796875 489.612304688 515.24609375 c 128,-1,24
 517.3203125 494.3125 517.3203125 494.3125 510.715820312 456.852539062 c 128,-1,25
 504.110351562 419.392578125 504.110351562 419.392578125 469.020507812 398.4609375 c 128,-1,26
 433.9296875 377.529296875 433.9296875 377.529296875 390.959960938 377.529296875 c 2,27,-1
 177.388671875 377.529296875 l 1,28,-1
 205.36328125 536.1796875 l 1,21,-1
158.380859375 269.7265625 m 1,29,-1
 371.952148438 269.7265625 l 2,30,31
 414.919921875 269.7265625 414.919921875 269.7265625 442.62890625 248.79296875 c 128,-1,32
 470.337890625 227.858398438 470.337890625 227.858398438 463.732421875 190.3984375 c 128,-1,33
 457.126953125 152.938476562 457.126953125 152.938476562 422.036132812 132.004882812 c 128,-1,34
 386.9453125 111.071289062 386.9453125 111.071289062 343.9765625 111.071289062 c 2,35,-1
 130.405273438 111.071289062 l 1,36,-1
 158.380859375 269.7265625 l 1,29,-1
EndSplineSet
Validated: 41
EndChar

StartChar: C
Encoding: 67 67 21
Width: 597
VWidth: 1000
GlyphClass: 1
Flags: W
LayerCount: 2
Fore
SplineSet
38.6064453125 216.673828125 m 2,0,-1
 76.333984375 430.63671875 l 2,1,2
 83.80078125 472.983398438 83.80078125 472.983398438 101.515625 509.572265625 c 128,-1,3
 119.23046875 546.161132812 119.23046875 546.161132812 148.612304688 577.364257812 c 128,-1,4
 177.994140625 608.567382812 177.994140625 608.567382812 224.114257812 626.583007812 c 128,-1,5
 270.234375 644.598632812 270.234375 644.598632812 328.0234375 644.598632812 c 2,6,-1
 488.494140625 644.598632812 l 2,7,8
 526.224609375 644.598632812 526.224609375 644.598632812 549.962890625 634.4296875 c 128,-1,9
 573.701171875 624.260742188 573.701171875 624.260742188 582.489257812 612.142578125 c 128,-1,10
 591.27734375 600.0234375 591.27734375 600.0234375 604.837890625 575.924804688 c 128,-1,11
 618.399414062 551.826171875 618.399414062 551.826171875 630.102539062 537.618164062 c 1,12,-1
 309.16015625 537.618164062 l 2,13,14
 269.041015625 537.618164062 269.041015625 537.618164062 229.71484375 504.186523438 c 128,-1,15
 190.388671875 470.754882812 190.388671875 470.754882812 183.314453125 430.63671875 c 2,16,-1
 145.586914062 216.673828125 l 2,17,18
 138.513671875 176.555664062 138.513671875 176.555664062 166.049804688 143.124023438 c 128,-1,19
 193.586914062 109.693359375 193.586914062 109.693359375 233.705078125 109.693359375 c 2,20,-1
 554.647460938 109.693359375 l 1,21,22
 537.93359375 95.4853515625 537.93359375 95.4853515625 515.875 71.38671875 c 128,-1,23
 493.815429688 47.2890625 493.815429688 47.2890625 480.752929688 35.169921875 c 128,-1,24
 467.69140625 23.05078125 467.69140625 23.05078125 440.3671875 12.8828125 c 128,-1,25
 413.04296875 2.7138671875 413.04296875 2.7138671875 375.3125 2.7138671875 c 2,26,-1
 214.841796875 2.7138671875 l 2,27,28
 157.052734375 2.7138671875 157.052734375 2.7138671875 117.286132812 20.7294921875 c 128,-1,29
 77.5185546875 38.7451171875 77.5185546875 38.7451171875 59.140625 69.947265625 c 128,-1,30
 40.763671875 101.150390625 40.763671875 101.150390625 35.951171875 137.73828125 c 128,-1,31
 31.1396484375 174.327148438 31.1396484375 174.327148438 38.6064453125 216.673828125 c 2,0,-1
EndSplineSet
Validated: 33
EndChar

StartChar: D
Encoding: 68 68 22
Width: 599
VWidth: 1000
GlyphClass: 1
Flags: W
LayerCount: 2
Fore
SplineSet
205.362304688 536.180664062 m 1,0,-1
 130.404296875 111.07421875 l 1,1,-1
 370.416015625 111.07421875 l 2,2,3
 449.743164062 111.07421875 449.743164062 111.07421875 463.729492188 190.400390625 c 2,4,-1
 496.725585938 377.528320312 l 2,5,6
 524.700195312 536.181640625 524.700195312 536.181640625 366.047851562 536.180664062 c 2,7,-1
 205.362304688 536.180664062 l 1,0,-1
330.138671875 643.983398438 m 2,8,9
 411.159179688 643.983398438 411.159179688 643.983398438 478.508789062 611.145507812 c 128,-1,10
 545.858398438 578.307617188 545.858398438 578.307617188 581.932617188 516.134765625 c 128,-1,11
 618.005859375 453.961914062 618.005859375 453.961914062 604.528320312 377.528320312 c 2,12,-1
 576.1953125 216.842773438 l 2,13,14
 554.9453125 96.328125 554.9453125 96.328125 500.212890625 49.7998046875 c 128,-1,15
 445.481445312 3.2724609375 445.481445312 3.2724609375 324.966796875 3.2724609375 c 2,16,-1
 3.59375 3.2724609375 l 1,17,-1
 116.568359375 643.983398438 l 1,18,-1
 330.138671875 643.983398438 l 2,8,9
EndSplineSet
Validated: 33
EndChar

StartChar: E
Encoding: 69 69 23
Width: 597
VWidth: 1000
GlyphClass: 1
Flags: W
LayerCount: 2
Fore
SplineSet
0.8798828125 2.7138671875 m 1,0,-1
 114.061523438 644.598632812 l 1,1,-1
 648.965820312 644.598632812 l 1,2,-1
 630.102539062 537.618164062 l 1,3,-1
 202.178710938 537.618164062 l 1,4,-1
 173.8828125 377.146484375 l 1,5,-1
 601.806640625 377.146484375 l 1,6,-1
 582.943359375 270.165039062 l 1,7,-1
 155.01953125 270.165039062 l 1,8,-1
 126.723632812 109.693359375 l 1,9,-1
 554.647460938 109.693359375 l 1,10,-1
 535.784179688 2.7138671875 l 1,11,-1
 0.8798828125 2.7138671875 l 1,0,-1
EndSplineSet
Validated: 1
EndChar

StartChar: F
Encoding: 70 70 24
Width: 596
VWidth: 1000
GlyphClass: 1
Flags: W
LayerCount: 2
Fore
SplineSet
2.8798828125 2.7138671875 m 1,0,-1
 116.061523438 644.598632812 l 1,1,-1
 650.965820312 644.598632812 l 1,2,-1
 632.102539062 537.618164062 l 1,3,-1
 204.178710938 537.618164062 l 1,4,-1
 175.8828125 377.146484375 l 1,5,-1
 603.806640625 377.146484375 l 1,6,-1
 584.943359375 270.165039062 l 1,7,-1
 157.01953125 270.165039062 l 1,8,-1
 109.860351562 2.7138671875 l 1,9,-1
 2.8798828125 2.7138671875 l 1,0,-1
EndSplineSet
Validated: 1
EndChar

StartChar: G
Encoding: 71 71 25
Width: 597
VWidth: 1000
GlyphClass: 1
Flags: W
LayerCount: 2
Fore
SplineSet
38.6064453125 216.673828125 m 2,0,-1
 76.333984375 430.63671875 l 2,1,2
 83.80078125 472.983398438 83.80078125 472.983398438 101.515625 509.572265625 c 128,-1,3
 119.23046875 546.161132812 119.23046875 546.161132812 148.612304688 577.364257812 c 128,-1,4
 177.994140625 608.567382812 177.994140625 608.567382812 224.114257812 626.583007812 c 128,-1,5
 270.234375 644.598632812 270.234375 644.598632812 328.0234375 644.598632812 c 2,6,-1
 648.965820312 644.598632812 l 1,7,-1
 630.102539062 537.618164062 l 1,8,-1
 282.415039062 537.618164062 l 2,9,10
 202.177734375 537.618164062 202.177734375 537.618164062 188.030273438 457.381835938 c 2,11,-1
 140.87109375 189.928710938 l 2,12,13
 126.723632812 109.69140625 126.723632812 109.69140625 206.959960938 109.693359375 c 2,14,-1
 367.4296875 109.693359375 l 2,15,16
 447.666992188 109.693359375 447.666992188 109.693359375 461.813476562 189.928710938 c 2,17,-1
 475.961914062 270.165039062 l 1,18,-1
 315.491210938 270.165039062 l 1,19,-1
 334.354492188 377.146484375 l 1,20,-1
 601.806640625 377.146484375 l 1,21,-1
 564.079101562 163.184570312 l 2,22,23
 535.784179688 2.7138671875 535.784179688 2.7138671875 375.3125 2.7138671875 c 2,24,-1
 214.841796875 2.7138671875 l 2,25,26
 94.48828125 2.7138671875 94.48828125 2.7138671875 55.9365234375 49.517578125 c 128,-1,27
 17.3857421875 96.3212890625 17.3857421875 96.3212890625 38.6064453125 216.673828125 c 2,0,-1
EndSplineSet
Validated: 33
EndChar

StartChar: H
Encoding: 72 72 26
Width: 596
VWidth: 1000
GlyphClass: 1
Flags: W
LayerCount: 2
Fore
SplineSet
0.8798828125 2.7138671875 m 1,0,-1
 114.061523438 644.598632812 l 1,1,-1
 221.041992188 644.598632812 l 1,2,-1
 183.314453125 430.63671875 l 1,3,-1
 504.256835938 430.63671875 l 1,4,-1
 541.984375 644.598632812 l 1,5,-1
 648.965820312 644.598632812 l 1,6,-1
 535.784179688 2.7138671875 l 1,7,-1
 428.802734375 2.7138671875 l 1,8,-1
 485.393554688 323.65625 l 1,9,-1
 164.451171875 323.65625 l 1,10,-1
 107.860351562 2.7138671875 l 1,11,-1
 0.8798828125 2.7138671875 l 1,0,-1
EndSplineSet
Validated: 1
EndChar

StartChar: I
Encoding: 73 73 27
Width: 172
VWidth: 1000
GlyphClass: 1
Flags: W
LayerCount: 2
Fore
SplineSet
110.037109375 3.7138671875 m 1,0,-1
 3.056640625 3.7138671875 l 1,1,-1
 116.23828125 645.598632812 l 1,2,-1
 223.21875 645.598632812 l 1,3,-1
 110.037109375 3.7138671875 l 1,0,-1
EndSplineSet
Validated: 1
EndChar

StartChar: J
Encoding: 74 74 28
Width: 487
VWidth: 1000
GlyphClass: 1
Flags: W
LayerCount: 2
Fore
SplineSet
1.056640625 3.7138671875 m 1,0,-1
 19.919921875 110.693359375 l 1,1,-1
 233.881835938 110.693359375 l 2,2,3
 273.999023438 110.693359375 273.999023438 110.693359375 313.325195312 144.125 c 128,-1,4
 352.651367188 177.556640625 352.651367188 177.556640625 359.725585938 217.673828125 c 2,5,-1
 416.31640625 538.618164062 l 1,6,-1
 362.826171875 538.618164062 l 1,7,-1
 381.690429688 645.598632812 l 1,8,-1
 542.161132812 645.598632812 l 1,9,-1
 476.137695312 271.165039062 l 2,10,11
 466.028320312 213.830078125 466.028320312 213.830078125 430.282226562 162.150390625 c 128,-1,12
 394.536132812 110.470703125 394.536132812 110.470703125 348.14453125 76.7890625 c 128,-1,13
 301.75390625 43.1064453125 301.75390625 43.1064453125 252.033203125 23.41015625 c 128,-1,14
 202.313476562 3.7138671875 202.313476562 3.7138671875 161.52734375 3.7138671875 c 2,15,-1
 1.056640625 3.7138671875 l 1,0,-1
EndSplineSet
Validated: 1
EndChar

StartChar: K
Encoding: 75 75 29
Width: 544
VWidth: 1000
GlyphClass: 1
Flags: W
LayerCount: 2
Fore
SplineSet
1.056640625 3.7138671875 m 1,0,-1
 114.23828125 645.598632812 l 1,1,-1
 221.21875 645.598632812 l 1,2,-1
 174.059570312 378.146484375 l 1,3,-1
 488.670898438 645.598632812 l 1,4,-1
 595.65234375 645.598632812 l 1,5,-1
 281.041015625 378.146484375 l 1,6,-1
 334.53125 378.146484375 l 2,7,8
 414.766601562 378.146484375 414.766601562 378.146484375 469.83984375 311.283203125 c 128,-1,9
 524.913085938 244.419921875 524.913085938 244.419921875 510.765625 164.184570312 c 2,10,-1
 482.470703125 3.7138671875 l 1,11,-1
 375.489257812 3.7138671875 l 1,12,-1
 403.784179688 164.184570312 l 2,13,14
 410.857421875 204.301757812 410.857421875 204.301757812 383.321289062 237.733398438 c 128,-1,15
 355.78515625 271.165039062 355.78515625 271.165039062 315.666992188 271.165039062 c 2,16,-1
 155.1953125 271.165039062 l 1,17,-1
 108.037109375 3.7138671875 l 1,18,-1
 1.056640625 3.7138671875 l 1,0,-1
EndSplineSet
Validated: 33
EndChar

StartChar: L
Encoding: 76 76 30
Width: 489
VWidth: 1000
GlyphClass: 1
Flags: W
LayerCount: 2
Fore
SplineSet
1.056640625 3.7138671875 m 1,0,-1
 114.23828125 645.598632812 l 1,1,-1
 221.21875 645.598632812 l 1,2,-1
 126.900390625 110.693359375 l 1,3,-1
 447.842773438 110.693359375 l 1,4,-1
 428.979492188 3.7138671875 l 1,5,-1
 1.056640625 3.7138671875 l 1,0,-1
EndSplineSet
Validated: 1
EndChar

StartChar: M
Encoding: 77 77 31
Width: 652
VWidth: 1000
GlyphClass: 1
Flags: W
LayerCount: 2
Fore
SplineSet
109.860351562 2.7138671875 m 1,0,-1
 2.8798828125 2.7138671875 l 1,1,-1
 116.061523438 644.598632812 l 1,2,-1
 223.041992188 644.598632812 l 1,3,-1
 334.802734375 216.673828125 l 1,4,-1
 597.475585938 644.598632812 l 1,5,-1
 704.456054688 644.598632812 l 1,6,-1
 591.274414062 2.7138671875 l 1,7,-1
 484.293945312 2.7138671875 l 1,8,-1
 559.748046875 430.63671875 l 1,9,-1
 306.508789062 56.2041015625 l 1,10,-1
 185.314453125 430.63671875 l 1,11,-1
 109.860351562 2.7138671875 l 1,0,-1
EndSplineSet
Validated: 1
EndChar

StartChar: N
Encoding: 78 78 32
Width: 597
VWidth: 1000
GlyphClass: 1
Flags: W
LayerCount: 2
Fore
SplineSet
202.396484375 538.198242188 m 1,0,-1
 107.9765625 2.7138671875 l 1,1,-1
 0.8798828125 2.7138671875 l 1,2,-1
 114.184570312 645.294921875 l 1,3,-1
 381.926757812 645.294921875 l 2,4,5
 439.32421875 645.294921875 439.32421875 645.294921875 486.358398438 618.6328125 c 128,-1,6
 533.392578125 591.969726562 533.392578125 591.969726562 559.970703125 551.473632812 c 128,-1,7
 586.548828125 510.977539062 586.548828125 510.977539062 598.103515625 464.680664062 c 128,-1,8
 609.658203125 418.383789062 609.658203125 418.383789062 602.458007812 377.552734375 c 2,9,-1
 536.364257812 2.7138671875 l 1,10,-1
 429.267578125 2.7138671875 l 1,11,-1
 500.083007812 404.327148438 l 2,12,13
 509.885742188 448.573242188 509.885742188 448.573242188 478.069335938 493.385742188 c 128,-1,14
 446.25390625 538.198242188 446.25390625 538.198242188 389.81640625 538.198242188 c 2,15,-1
 202.396484375 538.198242188 l 1,0,-1
EndSplineSet
Validated: 33
EndChar

StartChar: O
Encoding: 79 79 33
Width: 547
VWidth: 1000
GlyphClass: 1
Flags: W
LayerCount: 2
Fore
SplineSet
40.251953125 216.842773438 m 2,0,1
 30.056640625 159.025390625 30.056640625 159.025390625 40.6005859375 116.08984375 c 128,-1,2
 51.14453125 73.1533203125 51.14453125 73.1533203125 78.23046875 49.3935546875 c 128,-1,3
 105.31640625 25.6337890625 105.31640625 25.6337890625 139.76171875 14.453125 c 128,-1,4
 174.208007812 3.2724609375 174.208007812 3.2724609375 216.1640625 3.2724609375 c 2,5,-1
 271.08203125 3.2724609375 l 2,6,7
 313.038085938 3.2724609375 313.038085938 3.2724609375 351.426757812 14.453125 c 128,-1,8
 389.815429688 25.6337890625 389.815429688 25.6337890625 425.280273438 49.3935546875 c 128,-1,9
 460.745117188 73.1533203125 460.745117188 73.1533203125 486.430664062 116.08984375 c 128,-1,10
 512.115234375 159.025390625 512.115234375 159.025390625 522.310546875 216.842773438 c 2,11,-1
 559.96875 430.413085938 l 2,12,13
 570.163085938 488.23046875 570.163085938 488.23046875 559.619140625 531.166015625 c 128,-1,14
 549.076171875 574.1015625 549.076171875 574.1015625 521.990234375 597.862304688 c 128,-1,15
 494.904296875 621.622070312 494.904296875 621.622070312 460.458984375 632.802734375 c 128,-1,16
 426.012695312 643.983398438 426.012695312 643.983398438 384.056640625 643.983398438 c 2,17,-1
 329.138671875 643.983398438 l 2,18,19
 287.182617188 643.983398438 287.182617188 643.983398438 248.793945312 632.802734375 c 128,-1,20
 210.405273438 621.622070312 210.405273438 621.622070312 174.940429688 597.862304688 c 128,-1,21
 139.475585938 574.1015625 139.475585938 574.1015625 113.790039062 531.166015625 c 128,-1,22
 88.1044921875 488.23046875 88.1044921875 488.23046875 77.91015625 430.413085938 c 2,23,-1
 40.251953125 216.842773438 l 2,0,1
185.712890625 430.413085938 m 2,24,25
 192.706054688 470.076171875 192.706054688 470.076171875 231.586914062 503.127929688 c 128,-1,26
 270.466796875 536.180664062 270.466796875 536.180664062 310.129882812 536.180664062 c 2,27,-1
 365.047851562 536.180664062 l 2,28,29
 404.711914062 536.180664062 404.711914062 536.180664062 431.935546875 503.127929688 c 128,-1,30
 459.16015625 470.076171875 459.16015625 470.076171875 452.166992188 430.413085938 c 2,31,-1
 414.508789062 216.842773438 l 2,32,33
 407.514648438 177.1796875 407.514648438 177.1796875 368.634765625 144.126953125 c 128,-1,34
 329.75390625 111.07421875 329.75390625 111.07421875 290.08984375 111.07421875 c 2,35,-1
 235.171875 111.07421875 l 2,36,37
 195.509765625 111.07421875 195.509765625 111.07421875 168.28515625 144.126953125 c 128,-1,38
 141.060546875 177.1796875 141.060546875 177.1796875 148.0546875 216.842773438 c 2,39,-1
 185.712890625 430.413085938 l 2,24,25
EndSplineSet
Validated: 41
EndChar

StartChar: P
Encoding: 80 80 34
Width: 601
VWidth: 1000
GlyphClass: 1
Flags: W
LayerCount: 2
Fore
SplineSet
444.172851562 535.51953125 m 2,0,1
 523.251953125 535.51953125 523.251953125 535.51953125 509.307617188 456.440429688 c 2,2,-1
 500.01171875 403.720703125 l 2,3,4
 486.068359375 324.640625 486.068359375 324.640625 406.989257812 324.641601562 c 2,5,-1
 167.723632812 324.641601562 l 1,6,-1
 204.907226562 535.51953125 l 1,7,-1
 444.172851562 535.51953125 l 2,0,1
116.389648438 642.986328125 m 1,8,-1
 3.7666015625 4.26953125 l 1,9,-1
 111.233398438 4.26953125 l 1,10,-1
 148.774414062 217.174804688 l 1,11,-1
 414.399414062 217.174804688 l 2,12,13
 574.5859375 217.174804688 574.5859375 217.174804688 602.831054688 377.361328125 c 2,14,-1
 612.126953125 430.080078125 l 2,15,16
 619.501953125 471.90625 619.501953125 471.90625 614.7578125 508.209960938 c 128,-1,17
 610.012695312 544.513671875 610.012695312 544.513671875 591.82421875 575.692382812 c 128,-1,18
 573.635742188 606.870117188 573.635742188 606.870117188 534.017578125 624.927734375 c 128,-1,19
 494.399414062 642.986328125 494.399414062 642.986328125 436.76171875 642.986328125 c 2,20,-1
 116.389648438 642.986328125 l 1,8,-1
EndSplineSet
Validated: 41
EndChar

StartChar: Q
Encoding: 81 81 35
Width: 544
VWidth: 1000
GlyphClass: 1
Flags: W
LayerCount: 2
Fore
SplineSet
78.5322265625 430.323242188 m 2,0,-1
 40.7939453125 216.301757812 l 2,1,2
 30.703125 159.071289062 30.703125 159.071289062 41.32421875 116.185546875 c 128,-1,3
 51.9462890625 73.30078125 51.9462890625 73.30078125 78.9580078125 49.271484375 c 128,-1,4
 105.969726562 25.2421875 105.969726562 25.2421875 140.594726562 13.7607421875 c 128,-1,5
 175.219726562 2.279296875 175.219726562 2.279296875 217.079101562 2.279296875 c 2,6,-1
 270.07421875 2.279296875 l 2,7,8
 326.590820312 2.279296875 326.590820312 2.279296875 379.778320312 34.892578125 c 1,9,-1
 426.427734375 -24.21875 l 2,10,11
 437.340820312 -37.4677734375 437.340820312 -37.4677734375 444.108398438 -43.244140625 c 128,-1,12
 450.875976562 -49.021484375 450.875976562 -49.021484375 463.83984375 -53.634765625 c 128,-1,13
 476.802734375 -58.248046875 476.802734375 -58.248046875 494.133789062 -50.697265625 c 128,-1,14
 511.466796875 -43.1455078125 511.466796875 -43.1455078125 534.458007812 -24.21875 c 1,15,-1
 445.4765625 83.8115234375 l 1,16,17
 508.916015625 143.041992188 508.916015625 143.041992188 521.833984375 216.301757812 c 2,18,-1
 559.572265625 430.323242188 l 2,19,20
 569.803710938 488.349609375 569.803710938 488.349609375 559.504882812 531.3046875 c 128,-1,21
 549.206054688 574.259765625 549.206054688 574.259765625 522.282226562 598.11328125 c 128,-1,22
 495.358398438 621.965820312 495.358398438 621.965820312 460.70703125 633.15625 c 128,-1,23
 426.0546875 644.345703125 426.0546875 644.345703125 383.287109375 644.345703125 c 2,24,-1
 330.291992188 644.345703125 l 2,25,26
 288.247070312 644.345703125 288.247070312 644.345703125 249.776367188 633.141601562 c 128,-1,27
 211.306640625 621.9375 211.306640625 621.9375 175.766601562 598.126953125 c 128,-1,28
 140.227539062 574.31640625 140.227539062 574.31640625 114.487304688 531.290039062 c 128,-1,29
 88.748046875 488.263671875 88.748046875 488.263671875 78.5322265625 430.323242188 c 2,0,-1
385.036132812 157.190429688 m 1,30,-1
 358.174804688 189.803710938 l 2,31,32
 347.567382812 202.681640625 347.567382812 202.681640625 340.260742188 208.764648438 c 128,-1,33
 332.956054688 214.848632812 332.956054688 214.848632812 319.944335938 219.283203125 c 128,-1,34
 306.932617188 223.71875 306.932617188 223.71875 289.662109375 216.217773438 c 128,-1,35
 272.392578125 208.716796875 272.392578125 208.716796875 250.14453125 189.803710938 c 1,36,-1
 313.94140625 112.34765625 l 1,37,38
 305.428710938 110.309570312 305.428710938 110.309570312 289.122070312 110.309570312 c 2,39,-1
 236.126953125 110.309570312 l 2,40,41
 196.379882812 110.309570312 196.379882812 110.309570312 169.09765625 143.431640625 c 128,-1,42
 141.81640625 176.5546875 141.81640625 176.5546875 148.82421875 216.301757812 c 2,43,-1
 186.5625 430.323242188 l 2,44,45
 193.5703125 470.0703125 193.5703125 470.0703125 232.533203125 503.193359375 c 128,-1,46
 271.49609375 536.315429688 271.49609375 536.315429688 311.243164062 536.315429688 c 2,47,-1
 364.23828125 536.315429688 l 2,48,49
 405.344726562 536.315429688 405.344726562 536.315429688 432.981445312 503.27734375 c 128,-1,50
 460.618164062 470.23828125 460.618164062 470.23828125 453.580078125 430.323242188 c 2,51,-1
 415.841796875 216.301757812 l 2,52,53
 410.040039062 183.397460938 410.040039062 183.397460938 385.036132812 157.190429688 c 1,30,-1
EndSplineSet
Validated: 41
EndChar

StartChar: R
Encoding: 82 82 36
Width: 600
VWidth: 1000
GlyphClass: 1
Flags: W
LayerCount: 2
Fore
SplineSet
116.268554688 644.34765625 m 1,0,-1
 3.2939453125 3.6376953125 l 1,1,-1
 111.095703125 3.6376953125 l 1,2,-1
 158.078125 270.091796875 l 1,3,-1
 398.08984375 270.091796875 l 2,4,5
 477.416992188 270.091796875 477.416992188 270.091796875 463.428710938 190.765625 c 2,6,-1
 430.43359375 3.6376953125 l 1,7,-1
 538.236328125 3.6376953125 l 1,8,-1
 575.89453125 217.208007812 l 2,9,10
 579.084960938 235.3046875 579.084960938 235.3046875 571.584960938 251.283203125 c 128,-1,11
 564.084960938 267.26171875 564.084960938 267.26171875 552.826171875 277.141601562 c 128,-1,12
 541.567382812 287.020507812 541.567382812 287.020507812 529.428710938 300.2265625 c 128,-1,13
 517.290039062 313.431640625 517.290039062 313.431640625 513.541992188 325.009765625 c 1,14,15
 539.729492188 325.009765625 539.729492188 325.009765625 571.1484375 346.744140625 c 128,-1,16
 602.567382812 368.479492188 602.567382812 368.479492188 608.889648438 404.3359375 c 2,17,-1
 622.876953125 483.662109375 l 2,18,19
 626.776367188 505.772460938 626.776367188 505.772460938 619.92578125 531.458984375 c 128,-1,20
 613.076171875 557.146484375 613.076171875 557.146484375 594.551757812 583.456054688 c 128,-1,21
 576.026367188 609.766601562 576.026367188 609.766601562 535.145507812 627.057617188 c 128,-1,22
 494.264648438 644.34765625 494.264648438 644.34765625 437.640625 644.34765625 c 2,23,-1
 116.268554688 644.34765625 l 1,0,-1
445.073242188 536.545898438 m 2,24,25
 484.737304688 536.545898438 484.737304688 536.545898438 500.234375 517.731445312 c 128,-1,26
 515.731445312 498.916992188 515.731445312 498.916992188 508.737304688 459.25390625 c 0,27,28
 494.391601562 377.893554688 494.391601562 377.893554688 417.098632812 377.893554688 c 2,29,-1
 177.086914062 377.893554688 l 1,30,-1
 205.061523438 536.545898438 l 1,31,-1
 445.073242188 536.545898438 l 2,24,25
EndSplineSet
Validated: 41
EndChar

StartChar: S
Encoding: 83 83 37
Width: 599
VWidth: 1000
GlyphClass: 1
Flags: W
LayerCount: 2
Fore
SplineSet
377.056640625 3.7138671875 m 2,0,1
 414.859375 3.7138671875 414.859375 3.7138671875 449.934570312 21.056640625 c 128,-1,2
 485.009765625 38.3984375 485.009765625 38.3984375 508.443359375 64.0986328125 c 128,-1,3
 531.876953125 89.798828125 531.876953125 89.798828125 546.970703125 116.3359375 c 128,-1,4
 562.065429688 142.872070312 562.065429688 142.872070312 565.823242188 164.184570312 c 2,5,-1
 575.254882812 217.673828125 l 2,6,7
 603.55078125 378.147460938 603.55078125 378.147460938 443.079101562 378.146484375 c 2,8,-1
 255.862304688 378.146484375 l 2,9,10
 175.626953125 378.146484375 175.626953125 378.146484375 189.774414062 458.381835938 c 128,-1,11
 203.921875 538.619140625 203.921875 538.619140625 284.157226562 538.618164062 c 2,12,-1
 631.845703125 538.618164062 l 1,13,14
 624.9609375 546.9765625 624.9609375 546.9765625 612.588867188 569.541992188 c 128,-1,15
 600.216796875 592.107421875 600.216796875 592.107421875 589.927734375 606.31640625 c 128,-1,16
 579.639648438 620.525390625 579.639648438 620.525390625 553.583007812 633.061523438 c 128,-1,17
 527.52734375 645.598632812 527.52734375 645.598632812 490.23828125 645.598632812 c 2,18,-1
 276.276367188 645.598632812 l 2,19,20
 238.47265625 645.598632812 238.47265625 645.598632812 203.397460938 628.255859375 c 128,-1,21
 168.323242188 610.913085938 168.323242188 610.913085938 144.889648438 585.212890625 c 128,-1,22
 121.456054688 559.512695312 121.456054688 559.512695312 106.362304688 532.9765625 c 128,-1,23
 91.267578125 506.440429688 91.267578125 506.440429688 87.509765625 485.127929688 c 2,24,-1
 78.078125 431.63671875 l 2,25,26
 49.7822265625 271.166015625 49.7822265625 271.166015625 210.252929688 271.165039062 c 2,27,-1
 397.469726562 271.165039062 l 2,28,29
 477.454101562 271.165039062 477.454101562 271.165039062 463.284179688 190.803710938 c 0,30,31
 449.159179688 110.693359375 449.159179688 110.693359375 369.174804688 110.693359375 c 2,32,-1
 21.4873046875 110.693359375 l 1,33,34
 28.37109375 102.3359375 28.37109375 102.3359375 40.7431640625 79.76953125 c 128,-1,35
 53.115234375 57.2041015625 53.115234375 57.2041015625 63.404296875 42.99609375 c 128,-1,36
 73.693359375 28.787109375 73.693359375 28.787109375 99.7490234375 16.2509765625 c 128,-1,37
 125.805664062 3.7138671875 125.805664062 3.7138671875 163.094726562 3.7138671875 c 2,38,-1
 377.056640625 3.7138671875 l 2,0,1
EndSplineSet
Validated: 41
EndChar

StartChar: T
Encoding: 84 84 38
Width: 599
VWidth: 1000
GlyphClass: 1
Flags: W
LayerCount: 2
Fore
SplineSet
322.999023438 3.7138671875 m 1,0,-1
 216.018554688 3.7138671875 l 1,1,-1
 310.3359375 538.618164062 l 1,2,-1
 96.3740234375 538.618164062 l 1,3,-1
 115.23828125 645.598632812 l 1,4,-1
 650.142578125 645.598632812 l 1,5,-1
 631.278320312 538.618164062 l 1,6,-1
 417.31640625 538.618164062 l 1,7,-1
 322.999023438 3.7138671875 l 1,0,-1
EndSplineSet
Validated: 1
EndChar

StartChar: U
Encoding: 85 85 39
Width: 545
VWidth: 1000
GlyphClass: 1
Flags: W
LayerCount: 2
Fore
SplineSet
222.041992188 644.598632812 m 1,0,-1
 115.061523438 644.598632812 l 1,1,-1
 39.6064453125 216.673828125 l 2,2,3
 29.4169921875 158.885742188 29.4169921875 158.885742188 39.861328125 115.942382812 c 128,-1,4
 50.3046875 72.9990234375 50.3046875 72.9990234375 77.296875 49.1201171875 c 128,-1,5
 104.2890625 25.240234375 104.2890625 25.240234375 138.891601562 13.9765625 c 128,-1,6
 173.495117188 2.7138671875 173.495117188 2.7138671875 215.841796875 2.7138671875 c 2,7,-1
 269.33203125 2.7138671875 l 2,8,9
 311.678710938 2.7138671875 311.678710938 2.7138671875 350.25390625 13.9765625 c 128,-1,10
 388.828125 25.240234375 388.828125 25.240234375 424.2421875 49.1201171875 c 128,-1,11
 459.655273438 72.9990234375 459.655273438 72.9990234375 485.243164062 115.942382812 c 128,-1,12
 510.831054688 158.885742188 510.831054688 158.885742188 521.020507812 216.673828125 c 2,13,-1
 596.475585938 644.598632812 l 1,14,-1
 489.494140625 644.598632812 l 1,15,-1
 414.0390625 216.673828125 l 2,16,17
 406.965820312 176.556640625 406.965820312 176.556640625 367.639648438 143.125 c 128,-1,18
 328.3125 109.693359375 328.3125 109.693359375 288.1953125 109.693359375 c 2,19,-1
 234.705078125 109.693359375 l 2,20,21
 194.586914062 109.693359375 194.586914062 109.693359375 167.049804688 143.125 c 128,-1,22
 139.513671875 176.556640625 139.513671875 176.556640625 146.586914062 216.673828125 c 2,23,-1
 222.041992188 644.598632812 l 1,0,-1
EndSplineSet
Validated: 41
EndChar

StartChar: V
Encoding: 86 86 40
Width: 544
VWidth: 1000
GlyphClass: 1
Flags: W
LayerCount: 2
Fore
SplineSet
106.805664062 592.108398438 m 1,0,-1
 190.2734375 3.7138671875 l 1,1,-1
 297.25390625 3.7138671875 l 1,2,-1
 588.219726562 592.108398438 l 1,3,-1
 597.65234375 645.598632812 l 1,4,-1
 490.670898438 645.598632812 l 1,5,-1
 481.23828125 592.108398438 l 1,6,-1
 262.624023438 110.693359375 l 1,7,-1
 213.786132812 592.108398438 l 1,8,-1
 223.21875 645.598632812 l 1,9,-1
 116.23828125 645.598632812 l 1,10,-1
 106.805664062 592.108398438 l 1,0,-1
EndSplineSet
Validated: 9
EndChar

StartChar: W
Encoding: 87 87 41
Width: 811
VWidth: 1000
GlyphClass: 1
Flags: W
LayerCount: 2
Fore
SplineSet
537.478515625 4.5537109375 m 1,0,-1
 484.594726562 4.5537109375 l 1,1,-1
 440.892578125 218.124023438 l 1,2,-1
 323.908203125 4.5537109375 l 1,3,-1
 216.106445312 4.5537109375 l 1,4,-1
 110.130859375 614.754882812 l 1,5,-1
 115.510742188 645.264648438 l 1,6,-1
 223.3125 645.264648438 l 1,7,-1
 204.3046875 537.462890625 l 1,8,-1
 270.881835938 165.240234375 l 1,9,-1
 325.799804688 165.240234375 l 1,10,-1
 523.642578125 537.462890625 l 1,11,-1
 542.650390625 645.264648438 l 1,12,-1
 650.453125 645.264648438 l 1,13,-1
 643.998046875 608.65234375 l 1,14,-1
 486.342773438 325.926757812 l 1,15,-1
 512.928710938 165.240234375 l 1,16,-1
 539.370117188 165.240234375 l 1,17,-1
 737.212890625 537.462890625 l 1,18,-1
 756.220703125 645.264648438 l 1,19,-1
 864.0234375 645.264648438 l 1,20,-1
 858.643554688 614.754882812 l 1,21,-1
 537.478515625 4.5537109375 l 1,0,-1
EndSplineSet
Validated: 1
EndChar

StartChar: X
Encoding: 88 88 42
Width: 544
VWidth: 1000
GlyphClass: 1
Flags: W
LayerCount: 2
Fore
SplineSet
126.900390625 110.693359375 m 1,0,-1
 108.037109375 3.7138671875 l 1,1,-1
 1.056640625 3.7138671875 l 1,2,-1
 19.919921875 110.693359375 l 1,3,-1
 276.325195312 351.401367188 l 1,4,-1
 104.805664062 592.108398438 l 1,5,-1
 114.23828125 645.598632812 l 1,6,-1
 221.21875 645.598632812 l 1,7,-1
 211.786132812 592.108398438 l 1,8,-1
 317.217773438 431.63671875 l 1,9,-1
 479.23828125 592.108398438 l 1,10,-1
 488.670898438 645.598632812 l 1,11,-1
 595.65234375 645.598632812 l 1,12,-1
 586.219726562 592.108398438 l 1,13,-1
 329.815429688 351.401367188 l 1,14,-1
 501.333984375 110.693359375 l 1,15,-1
 482.470703125 3.7138671875 l 1,16,-1
 375.489257812 3.7138671875 l 1,17,-1
 394.352539062 110.693359375 l 1,18,-1
 288.921875 271.165039062 l 1,19,-1
 126.900390625 110.693359375 l 1,0,-1
EndSplineSet
Validated: 1
EndChar

StartChar: Y
Encoding: 89 89 43
Width: 596
VWidth: 1000
GlyphClass: 1
Flags: W
LayerCount: 2
Fore
SplineSet
321.822265625 2.7138671875 m 1,0,-1
 214.841796875 2.7138671875 l 1,1,-1
 262.000976562 270.165039062 l 1,2,3
 219.654296875 270.165039062 219.654296875 270.165039062 185.05078125 281.428710938 c 128,-1,4
 150.448242188 292.69140625 150.448242188 292.69140625 123.456054688 316.571289062 c 128,-1,5
 96.4638671875 340.451171875 96.4638671875 340.451171875 86.0205078125 383.395507812 c 128,-1,6
 75.576171875 426.338867188 75.576171875 426.338867188 85.7666015625 484.127929688 c 2,7,-1
 114.061523438 644.598632812 l 1,8,-1
 221.041992188 644.598632812 l 1,9,-1
 192.747070312 484.127929688 l 2,10,11
 185.672851562 444.009765625 185.672851562 444.009765625 213.208984375 410.578125 c 128,-1,12
 240.74609375 377.146484375 240.74609375 377.146484375 280.864257812 377.146484375 c 2,13,-1
 387.844726562 377.146484375 l 2,14,15
 427.962890625 377.146484375 427.962890625 377.146484375 467.2890625 410.578125 c 128,-1,16
 506.615234375 444.009765625 506.615234375 444.009765625 513.689453125 484.127929688 c 2,17,-1
 541.984375 644.598632812 l 1,18,-1
 648.965820312 644.598632812 l 1,19,-1
 620.670898438 484.127929688 l 2,20,21
 610.48046875 426.338867188 610.48046875 426.338867188 584.892578125 383.395507812 c 128,-1,22
 559.3046875 340.451171875 559.3046875 340.451171875 523.890625 316.571289062 c 128,-1,23
 488.477539062 292.69140625 488.477539062 292.69140625 449.90234375 281.428710938 c 128,-1,24
 411.327148438 270.165039062 411.327148438 270.165039062 368.981445312 270.165039062 c 1,25,-1
 321.822265625 2.7138671875 l 1,0,-1
EndSplineSet
Validated: 33
EndChar

StartChar: Z
Encoding: 90 90 44
Width: 599
VWidth: 1000
GlyphClass: 1
Flags: W
LayerCount: 2
Fore
SplineSet
556.647460938 109.693359375 m 1,0,-1
 537.784179688 2.7138671875 l 1,1,-1
 2.8798828125 2.7138671875 l 1,2,-1
 26.458984375 136.438476562 l 1,3,-1
 498.375976562 537.618164062 l 1,4,-1
 97.1982421875 537.618164062 l 1,5,-1
 116.061523438 644.598632812 l 1,6,-1
 650.965820312 644.598632812 l 1,7,-1
 636.818359375 564.36328125 l 1,8,-1
 101.977539062 109.693359375 l 1,9,-1
 556.647460938 109.693359375 l 1,0,-1
EndSplineSet
Validated: 1
EndChar

StartChar: a
Encoding: 97 97 45
Width: 434
VWidth: 1000
GlyphClass: 1
Flags: W
LayerCount: 2
Fore
SplineSet
180.573242188 267.029296875 m 1,0,-1
 233.099609375 371.40234375 l 1,1,-1
 269.228515625 371.40234375 l 1,2,-1
 284.946289062 267.029296875 l 1,3,-1
 180.573242188 267.029296875 l 1,0,-1
276.579101562 162.65625 m 1,4,-1
 283.434570312 110.469726562 l 1,5,-1
 264.676757812 4.08984375 l 1,6,-1
 371.056640625 4.08984375 l 1,7,-1
 384.859375 82.369140625 l 1,8,-1
 322.108398438 477.783203125 l 1,9,-1
 217.735351562 477.783203125 l 1,10,-1
 15.5400390625 82.369140625 l 1,11,-1
 1.7373046875 4.08984375 l 1,12,-1
 108.1171875 4.08984375 l 1,13,-1
 126.875 110.469726562 l 1,14,-1
 152.134765625 162.65625 l 1,15,-1
 276.579101562 162.65625 l 1,4,-1
EndSplineSet
Validated: 9
EndChar

StartChar: b
Encoding: 98 98 46
Width: 435
VWidth: 1000
GlyphClass: 1
Flags: W
LayerCount: 2
Fore
SplineSet
128.84375 111.180664062 m 1,0,-1
 233.076171875 111.180664062 l 2,1,2
 252.619140625 111.180664062 252.619140625 111.180664062 271.776367188 127.466796875 c 128,-1,3
 290.934570312 143.752929688 290.934570312 143.752929688 294.380859375 163.296875 c 128,-1,4
 297.826171875 182.83984375 297.826171875 182.83984375 284.412109375 199.126953125 c 128,-1,5
 270.998046875 215.413085938 270.998046875 215.413085938 251.455078125 215.413085938 c 2,6,-1
 147.22265625 215.413085938 l 1,7,-1
 128.84375 111.180664062 l 1,0,-1
87.2861328125 477.998046875 m 1,8,-1
 245.639648438 477.998046875 l 2,9,10
 301.9453125 477.998046875 301.9453125 477.998046875 342.563476562 465.213867188 c 128,-1,11
 383.180664062 452.4296875 383.180664062 452.4296875 402.634765625 431.869140625 c 128,-1,12
 422.088867188 411.309570312 422.088867188 411.309570312 429.370117188 389.482421875 c 128,-1,13
 436.651367188 367.655273438 436.651367188 367.655273438 432.78125 345.703125 c 0,14,15
 426.251953125 308.677734375 426.251953125 308.677734375 391.3671875 288.102539062 c 128,-1,16
 356.482421875 267.528320312 356.482421875 267.528320312 312.759765625 267.528320312 c 1,17,18
 360.473632812 242.099609375 360.473632812 242.099609375 380.524414062 202.578125 c 128,-1,19
 400.575195312 163.057617188 400.575195312 163.057617188 396.0234375 137.23828125 c 0,20,21
 393.620117188 123.608398438 393.620117188 123.608398438 390.723632812 112.83984375 c 128,-1,22
 387.828125 102.072265625 387.828125 102.072265625 375.534179688 80.046875 c 128,-1,23
 363.241210938 58.021484375 363.241210938 58.021484375 345.537109375 43.373046875 c 128,-1,24
 327.833984375 28.724609375 327.833984375 28.724609375 293.446289062 16.833984375 c 128,-1,25
 259.05859375 4.943359375 259.05859375 4.943359375 214.34375 4.943359375 c 2,26,-1
 3.8740234375 4.943359375 l 1,27,-1
 87.2861328125 477.998046875 l 1,8,-1
174.791015625 371.760742188 m 1,28,-1
 165.6015625 319.64453125 l 1,29,-1
 269.833984375 319.64453125 l 2,30,31
 291.29296875 319.64453125 291.29296875 319.64453125 307.798828125 326.326171875 c 128,-1,32
 324.305664062 333.0078125 324.305664062 333.0078125 326.543945312 345.703125 c 0,33,34
 331.138671875 371.760742188 331.138671875 371.760742188 279.0234375 371.760742188 c 2,35,-1
 174.791015625 371.760742188 l 1,28,-1
EndSplineSet
Validated: 33
EndChar

StartChar: c
Encoding: 99 99 47
Width: 435
VWidth: 1000
GlyphClass: 1
Flags: W
LayerCount: 2
Fore
SplineSet
436.098632812 373.205078125 m 1,0,-1
 225.299804688 373.205078125 l 2,1,2
 205.538085938 373.205078125 205.538085938 373.205078125 186.166015625 356.736328125 c 128,-1,3
 166.79296875 340.267578125 166.79296875 340.267578125 163.30859375 320.505859375 c 2,4,-1
 135.431640625 162.40625 l 2,5,6
 131.947265625 142.64453125 131.947265625 142.64453125 145.51171875 126.17578125 c 128,-1,7
 159.076171875 109.70703125 159.076171875 109.70703125 178.838867188 109.70703125 c 2,8,-1
 389.637695312 109.70703125 l 1,9,10
 379.951171875 101.47265625 379.951171875 101.47265625 359.920898438 79.240234375 c 128,-1,11
 339.890625 57.0078125 339.890625 57.0078125 324.817382812 43.0087890625 c 128,-1,12
 309.744140625 29.0107421875 309.744140625 29.0107421875 279.717773438 16.6591796875 c 128,-1,13
 249.690429688 4.3076171875 249.690429688 4.3076171875 212.953125 4.3076171875 c 2,14,-1
 160.25390625 4.3076171875 l 2,15,16
 2.154296875 4.3076171875 2.154296875 4.3076171875 30.0322265625 162.40625 c 2,17,-1
 57.9091796875 320.505859375 l 2,18,19
 85.7861328125 478.60546875 85.7861328125 478.60546875 243.884765625 478.604492188 c 2,20,-1
 296.583984375 478.604492188 l 2,21,22
 333.322265625 478.604492188 333.322265625 478.604492188 358.993164062 466.252929688 c 128,-1,23
 384.6640625 453.901367188 384.6640625 453.901367188 394.80078125 439.903320312 c 128,-1,24
 404.9375 425.904296875 404.9375 425.904296875 417.126953125 403.671875 c 128,-1,25
 429.31640625 381.439453125 429.31640625 381.439453125 436.098632812 373.205078125 c 1,0,-1
EndSplineSet
Validated: 33
EndChar

StartChar: d
Encoding: 100 100 48
Width: 434
VWidth: 1000
GlyphClass: 1
Flags: W
LayerCount: 2
Fore
SplineSet
128.84375 111.180664062 m 1,0,-1
 233.076171875 111.180664062 l 2,1,2
 252.619140625 111.180664062 252.619140625 111.180664062 271.776367188 127.466796875 c 128,-1,3
 290.934570312 143.752929688 290.934570312 143.752929688 294.380859375 163.296875 c 2,4,-1
 321.94921875 319.64453125 l 2,5,6
 325.39453125 339.188476562 325.39453125 339.188476562 311.98046875 355.474609375 c 128,-1,7
 298.56640625 371.760742188 298.56640625 371.760742188 279.0234375 371.760742188 c 2,8,-1
 174.791015625 371.760742188 l 1,9,-1
 128.84375 111.180664062 l 1,0,-1
87.2861328125 477.998046875 m 1,10,-1
 245.639648438 477.998046875 l 2,11,12
 302.6171875 477.998046875 302.6171875 477.998046875 341.78125 460.146484375 c 128,-1,13
 380.946289062 442.294921875 380.946289062 442.294921875 398.926757812 411.473632812 c 128,-1,14
 416.907226562 380.65234375 416.907226562 380.65234375 421.59765625 344.763671875 c 128,-1,15
 426.287109375 308.875 426.287109375 308.875 418.997070312 267.528320312 c 2,16,-1
 400.618164062 163.296875 l 2,17,18
 372.696289062 4.943359375 372.696289062 4.943359375 214.34375 4.943359375 c 2,19,-1
 3.8740234375 4.943359375 l 1,20,-1
 87.2861328125 477.998046875 l 1,10,-1
EndSplineSet
Validated: 33
EndChar

StartChar: e
Encoding: 101 101 49
Width: 431
VWidth: 1000
GlyphClass: 1
Flags: W
LayerCount: 2
Fore
SplineSet
124.962890625 108.70703125 m 1,0,-1
 388.4609375 108.70703125 l 1,1,-1
 369.875976562 3.3076171875 l 1,2,-1
 0.978515625 3.3076171875 l 1,3,-1
 84.6103515625 477.604492188 l 1,4,-1
 453.5078125 477.604492188 l 1,5,-1
 434.922851562 372.205078125 l 1,6,-1
 171.424804688 372.205078125 l 1,7,-1
 162.1328125 319.505859375 l 1,8,-1
 425.630859375 319.505859375 l 1,9,-1
 407.045898438 214.106445312 l 1,10,-1
 143.547851562 214.106445312 l 1,11,-1
 124.962890625 108.70703125 l 1,0,-1
EndSplineSet
Validated: 1
EndChar

StartChar: f
Encoding: 102 102 50
Width: 433
VWidth: 1000
GlyphClass: 1
Flags: W
LayerCount: 2
Fore
SplineSet
144.149414062 214.99609375 m 1,0,-1
 106.823242188 3.30859375 l 1,1,-1
 0.9794921875 3.30859375 l 1,2,-1
 84.9638671875 479.603515625 l 1,3,-1
 455.415039062 479.603515625 l 1,4,-1
 436.751953125 373.759765625 l 1,5,-1
 172.14453125 373.759765625 l 1,6,-1
 162.8125 320.838867188 l 1,7,-1
 427.419921875 320.838867188 l 1,8,-1
 408.756835938 214.99609375 l 1,9,-1
 144.149414062 214.99609375 l 1,0,-1
EndSplineSet
Validated: 1
EndChar

StartChar: g
Encoding: 103 103 51
Width: 433
VWidth: 1000
GlyphClass: 1
Flags: W
LayerCount: 2
Fore
SplineSet
293.530273438 162.40625 m 2,0,-1
 302.822265625 215.106445312 l 1,1,-1
 250.576171875 215.262695312 l 1,2,-1
 197.422851562 215.106445312 l 1,3,-1
 216.0078125 320.505859375 l 1,4,-1
 426.806640625 320.505859375 l 1,5,-1
 380.344726562 57.0078125 l 2,6,7
 376.860351562 37.24609375 376.860351562 37.24609375 357.487304688 20.7763671875 c 128,-1,8
 338.114257812 4.3076171875 338.114257812 4.3076171875 318.352539062 4.3076171875 c 2,9,-1
 160.25390625 4.3076171875 l 2,10,11
 2.154296875 4.3076171875 2.154296875 4.3076171875 30.0322265625 162.40625 c 2,12,-1
 57.9091796875 320.505859375 l 2,13,14
 85.7861328125 478.60546875 85.7861328125 478.60546875 243.884765625 478.604492188 c 2,15,-1
 454.68359375 478.604492188 l 1,16,-1
 436.098632812 373.205078125 l 1,17,-1
 225.299804688 373.205078125 l 2,18,19
 205.538085938 373.205078125 205.538085938 373.205078125 186.166015625 356.736328125 c 128,-1,20
 166.79296875 340.267578125 166.79296875 340.267578125 163.30859375 320.505859375 c 2,21,-1
 135.431640625 162.40625 l 2,22,23
 131.947265625 142.643554688 131.947265625 142.643554688 145.51171875 126.17578125 c 128,-1,24
 159.075195312 109.70703125 159.075195312 109.70703125 178.838867188 109.70703125 c 2,25,-1
 231.538085938 109.70703125 l 2,26,27
 271.0625 109.70703125 271.0625 109.70703125 278.811523438 116.294921875 c 128,-1,28
 286.560546875 122.881835938 286.560546875 122.881835938 293.530273438 162.40625 c 2,0,-1
EndSplineSet
Validated: 33
EndChar

StartChar: h
Encoding: 104 104 52
Width: 432
VWidth: 1000
GlyphClass: 1
Flags: W
LayerCount: 2
Fore
SplineSet
144.723632812 215.106445312 m 1,0,-1
 107.5546875 4.3076171875 l 1,1,-1
 2.1552734375 4.3076171875 l 1,2,-1
 85.7861328125 478.604492188 l 1,3,-1
 191.185546875 478.604492188 l 1,4,-1
 163.30859375 320.505859375 l 1,5,-1
 321.407226562 320.505859375 l 1,6,-1
 349.284179688 478.604492188 l 1,7,-1
 454.68359375 478.604492188 l 1,8,-1
 371.052734375 4.3076171875 l 1,9,-1
 265.653320312 4.3076171875 l 1,10,-1
 302.822265625 215.106445312 l 1,11,-1
 144.723632812 215.106445312 l 1,0,-1
EndSplineSet
Validated: 1
EndChar

StartChar: i
Encoding: 105 105 53
Width: 170
VWidth: 1000
GlyphClass: 1
Flags: W
LayerCount: 2
Fore
SplineSet
86.9638671875 479.603515625 m 1,0,-1
 192.807617188 479.603515625 l 1,1,-1
 108.823242188 3.30859375 l 1,2,-1
 2.9794921875 3.30859375 l 1,3,-1
 86.9638671875 479.603515625 l 1,0,-1
EndSplineSet
Validated: 1
EndChar

StartChar: j
Encoding: 106 106 54
Width: 378
VWidth: 1000
GlyphClass: 1
Flags: W
LayerCount: 2
Fore
SplineSet
295.583984375 478.604492188 m 1,0,-1
 400.983398438 478.604492188 l 1,1,-1
 345.229492188 162.40625 l 2,2,3
 332.065429688 87.7490234375 332.065429688 87.7490234375 277.7734375 46.0283203125 c 128,-1,4
 223.481445312 4.3076171875 223.481445312 4.3076171875 159.25390625 4.3076171875 c 128,-1,5
 95.0263671875 4.3076171875 95.0263671875 4.3076171875 55.447265625 46.0283203125 c 128,-1,6
 15.8681640625 87.7490234375 15.8681640625 87.7490234375 29.0322265625 162.40625 c 2,7,-1
 38.32421875 215.106445312 l 1,8,-1
 143.723632812 215.106445312 l 1,9,-1
 134.431640625 162.40625 l 2,10,11
 131.11328125 143.584960938 131.11328125 143.584960938 133.06640625 132.096679688 c 128,-1,12
 135.020507812 120.607421875 135.020507812 120.607421875 143.290039062 116.137695312 c 128,-1,13
 151.559570312 111.66796875 151.559570312 111.66796875 158.111328125 110.6875 c 128,-1,14
 164.663085938 109.70703125 164.663085938 109.70703125 177.838867188 109.70703125 c 128,-1,15
 191.013671875 109.70703125 191.013671875 109.70703125 197.911132812 110.6875 c 128,-1,16
 204.80859375 111.66796875 204.80859375 111.66796875 214.654296875 116.137695312 c 128,-1,17
 224.5 120.607421875 224.5 120.607421875 230.505859375 132.096679688 c 128,-1,18
 236.51171875 143.584960938 236.51171875 143.584960938 239.830078125 162.40625 c 2,19,-1
 295.583984375 478.604492188 l 1,0,-1
EndSplineSet
Validated: 33
EndChar

StartChar: k
Encoding: 107 107 55
Width: 433
VWidth: 1000
GlyphClass: 1
Flags: W
LayerCount: 2
Fore
SplineSet
144.723632812 215.106445312 m 1,0,-1
 107.5546875 4.3076171875 l 1,1,-1
 2.1552734375 4.3076171875 l 1,2,-1
 85.7861328125 478.604492188 l 1,3,-1
 191.185546875 478.604492188 l 1,4,-1
 158.663085938 294.15625 l 1,5,-1
 375.633789062 478.604492188 l 1,6,-1
 454.68359375 478.604492188 l 1,7,-1
 450.038085938 452.254882812 l 1,8,-1
 233.065429688 267.806640625 l 1,9,-1
 259.415039062 267.806640625 l 2,10,11
 417.513671875 267.806640625 417.513671875 267.806640625 389.637695312 109.70703125 c 2,12,-1
 371.052734375 4.3076171875 l 1,13,-1
 265.653320312 4.3076171875 l 1,14,-1
 293.530273438 162.40625 l 2,15,16
 297.014648438 182.168945312 297.014648438 182.168945312 283.450195312 198.637695312 c 128,-1,17
 269.885742188 215.106445312 269.885742188 215.106445312 250.122070312 215.106445312 c 2,18,-1
 144.723632812 215.106445312 l 1,0,-1
EndSplineSet
Validated: 33
EndChar

StartChar: l
Encoding: 108 108 56
Width: 380
VWidth: 1000
GlyphClass: 1
Flags: W
LayerCount: 2
Fore
SplineSet
336.760742188 108.70703125 m 1,0,-1
 318.17578125 3.3076171875 l 1,1,-1
 1.978515625 3.3076171875 l 1,2,-1
 85.6103515625 477.604492188 l 1,3,-1
 191.009765625 477.604492188 l 1,4,-1
 125.962890625 108.70703125 l 1,5,-1
 336.760742188 108.70703125 l 1,0,-1
EndSplineSet
Validated: 1
EndChar

StartChar: m
Encoding: 109 109 57
Width: 588
VWidth: 1000
GlyphClass: 1
Flags: W
LayerCount: 2
Fore
SplineSet
157.663085938 294.15625 m 1,0,-1
 106.5546875 4.3076171875 l 1,1,-1
 1.1552734375 4.3076171875 l 1,2,-1
 84.7861328125 478.604492188 l 1,3,-1
 163.834960938 478.604492188 l 1,4,-1
 292.530273438 162.40625 l 1,5,-1
 532.732421875 478.604492188 l 1,6,-1
 611.782226562 478.604492188 l 1,7,-1
 528.151367188 4.3076171875 l 1,8,-1
 422.751953125 4.3076171875 l 1,9,-1
 473.860351562 294.15625 l 1,10,-1
 273.9453125 57.0078125 l 1,11,-1
 157.663085938 294.15625 l 1,0,-1
EndSplineSet
Validated: 1
EndChar

StartChar: n
Encoding: 110 110 58
Width: 432
VWidth: 1000
GlyphClass: 1
Flags: W
LayerCount: 2
Fore
SplineSet
172.600585938 373.205078125 m 1,0,-1
 107.5546875 4.3076171875 l 1,1,-1
 2.1552734375 4.3076171875 l 1,2,-1
 85.7861328125 478.604492188 l 1,3,-1
 243.884765625 478.604492188 l 2,4,5
 300.819335938 478.604492188 300.819335938 478.604492188 339.998046875 460.854492188 c 128,-1,6
 379.177734375 443.10546875 379.177734375 443.10546875 397.283203125 412.364257812 c 128,-1,7
 415.389648438 381.623046875 415.389648438 381.623046875 420.129882812 345.575195312 c 128,-1,8
 424.87109375 309.526367188 424.87109375 309.526367188 417.514648438 267.806640625 c 2,9,-1
 371.052734375 4.3076171875 l 1,10,-1
 265.653320312 4.3076171875 l 1,11,-1
 321.407226562 320.505859375 l 2,12,13
 324.891601562 340.268554688 324.891601562 340.268554688 311.327148438 356.736328125 c 128,-1,14
 297.762695312 373.205078125 297.762695312 373.205078125 277.999023438 373.205078125 c 2,15,-1
 172.600585938 373.205078125 l 1,0,-1
EndSplineSet
Validated: 33
EndChar

StartChar: o
Encoding: 111 111 59
Width: 432
VWidth: 1000
GlyphClass: 1
Flags: W
LayerCount: 2
Fore
SplineSet
163.6015625 319.64453125 m 2,0,1
 167.046875 339.188476562 167.046875 339.188476562 186.205078125 355.474609375 c 128,-1,2
 205.36328125 371.760742188 205.36328125 371.760742188 224.907226562 371.760742188 c 2,3,-1
 277.0234375 371.760742188 l 2,4,5
 296.56640625 371.760742188 296.56640625 371.760742188 309.98046875 355.474609375 c 128,-1,6
 323.39453125 339.188476562 323.39453125 339.188476562 319.94921875 319.64453125 c 2,7,-1
 292.380859375 163.296875 l 2,8,9
 288.934570312 143.752929688 288.934570312 143.752929688 269.776367188 127.466796875 c 128,-1,10
 250.619140625 111.180664062 250.619140625 111.180664062 231.076171875 111.180664062 c 2,11,-1
 178.959960938 111.180664062 l 2,12,13
 159.416015625 111.180664062 159.416015625 111.180664062 146.000976562 127.466796875 c 128,-1,14
 132.586914062 143.752929688 132.586914062 143.752929688 136.033203125 163.296875 c 2,15,-1
 163.6015625 319.64453125 l 2,0,1
29.7958984375 163.296875 m 2,16,17
 1.8740234375 4.943359375 1.8740234375 4.943359375 160.227539062 4.943359375 c 2,18,-1
 212.34375 4.943359375 l 2,19,20
 370.696289062 4.943359375 370.696289062 4.943359375 398.618164062 163.296875 c 2,21,-1
 426.186523438 319.64453125 l 2,22,23
 454.108398438 477.998046875 454.108398438 477.998046875 295.755859375 477.998046875 c 2,24,-1
 243.639648438 477.998046875 l 2,25,26
 85.2861328125 477.998046875 85.2861328125 477.998046875 57.3642578125 319.64453125 c 2,27,-1
 29.7958984375 163.296875 l 2,16,17
EndSplineSet
Validated: 41
EndChar

StartChar: p
Encoding: 112 112 60
Width: 434
VWidth: 1000
GlyphClass: 1
Flags: W
LayerCount: 2
Fore
SplineSet
174.791015625 371.760742188 m 1,0,-1
 156.412109375 267.528320312 l 1,1,-1
 260.64453125 267.528320312 l 2,2,3
 280.1875 267.528320312 280.1875 267.528320312 299.344726562 283.814453125 c 128,-1,4
 318.502929688 300.1015625 318.502929688 300.1015625 321.94921875 319.64453125 c 128,-1,5
 325.39453125 339.188476562 325.39453125 339.188476562 311.98046875 355.474609375 c 128,-1,6
 298.56640625 371.760742188 298.56640625 371.760742188 279.0234375 371.760742188 c 2,7,-1
 174.791015625 371.760742188 l 1,0,-1
245.639648438 477.998046875 m 2,8,9
 301.44140625 477.998046875 301.44140625 477.998046875 341.728515625 460.958007812 c 128,-1,10
 382.016601562 443.918945312 382.016601562 443.918945312 400.271484375 417.990234375 c 128,-1,11
 418.52734375 392.0625 418.52734375 392.0625 425.27734375 366.748046875 c 128,-1,12
 432.028320312 341.43359375 432.028320312 341.43359375 428.186523438 319.64453125 c 2,13,-1
 418.997070312 267.528320312 l 2,14,15
 411.513671875 225.091796875 411.513671875 225.091796875 364.473632812 194.194335938 c 128,-1,16
 317.432617188 163.296875 317.432617188 163.296875 242.265625 163.296875 c 2,17,-1
 138.033203125 163.296875 l 1,18,-1
 110.111328125 4.943359375 l 1,19,-1
 3.8740234375 4.943359375 l 1,20,-1
 87.2861328125 477.998046875 l 1,21,-1
 245.639648438 477.998046875 l 2,8,9
EndSplineSet
Validated: 33
EndChar

StartChar: q
Encoding: 113 113 61
Width: 430
VWidth: 1000
GlyphClass: 1
Flags: W
LayerCount: 2
Fore
SplineSet
321.045898438 319.298828125 m 2,0,1
 324.486328125 338.806640625 324.486328125 338.806640625 311.095703125 355.063476562 c 128,-1,2
 297.705078125 371.3203125 297.705078125 371.3203125 278.197265625 371.3203125 c 2,3,-1
 226.174804688 371.3203125 l 2,4,5
 206.666992188 371.3203125 206.666992188 371.3203125 187.543945312 355.063476562 c 128,-1,6
 168.420898438 338.806640625 168.420898438 338.806640625 164.98046875 319.298828125 c 2,7,-1
 137.109375 161.232421875 l 2,8,9
 133.669921875 141.724609375 133.669921875 141.724609375 147.059570312 125.467773438 c 128,-1,10
 160.450195312 109.2109375 160.450195312 109.2109375 179.958007812 109.2109375 c 2,11,-1
 205.96875 109.2109375 l 1,12,-1
 184.543945312 135.221679688 l 1,13,14
 206.086914062 153.534179688 206.086914062 153.534179688 223.455078125 160.541992188 c 128,-1,15
 240.82421875 167.548828125 240.82421875 167.548828125 252.583984375 163.267578125 c 128,-1,16
 264.342773438 158.986328125 264.342773438 158.986328125 270.524414062 153.7265625 c 128,-1,17
 276.705078125 148.465820312 276.705078125 148.465820312 283.291015625 139.223632812 c 1,18,19
 290.705078125 147.2265625 290.705078125 147.2265625 293.174804688 161.232421875 c 2,20,-1
 321.045898438 319.298828125 l 2,0,1
399.21875 161.232421875 m 2,21,22
 387.046875 92.2041015625 387.046875 92.2041015625 350.154296875 53.1875 c 1,23,-1
 418.782226562 -22.8447265625 l 1,24,25
 396.943359375 -41.41015625 396.943359375 -41.41015625 379.991210938 -48.7734375 c 128,-1,26
 363.038085938 -56.1357421875 363.038085938 -56.1357421875 350.265625 -51.7822265625 c 128,-1,27
 337.493164062 -47.4296875 337.493164062 -47.4296875 330.322265625 -41.45703125 c 128,-1,28
 323.150390625 -35.4853515625 323.150390625 -35.4853515625 312.73828125 -22.8447265625 c 2,29,-1
 283.07421875 13.1708984375 l 1,30,31
 247.962890625 3.166015625 247.962890625 3.166015625 213.282226562 3.166015625 c 2,32,-1
 161.259765625 3.166015625 l 2,33,34
 3.1943359375 3.166015625 3.1943359375 3.166015625 31.0654296875 161.232421875 c 2,35,-1
 58.9365234375 319.298828125 l 2,36,37
 86.8076171875 477.364257812 86.8076171875 477.364257812 244.873046875 477.364257812 c 2,38,-1
 296.895507812 477.364257812 l 2,39,40
 454.9609375 477.364257812 454.9609375 477.364257812 427.08984375 319.298828125 c 2,41,-1
 399.21875 161.232421875 l 2,21,22
EndSplineSet
Validated: 33
EndChar

StartChar: r
Encoding: 114 114 62
Width: 445
VWidth: 1000
GlyphClass: 1
Flags: W
LayerCount: 2
Fore
SplineSet
174.791015625 371.760742188 m 1,0,-1
 156.412109375 267.529296875 l 1,1,-1
 260.64453125 267.529296875 l 2,2,3
 279.861328125 267.529296875 279.861328125 267.529296875 299.28515625 284.400390625 c 128,-1,4
 318.708984375 301.270507812 318.708984375 301.270507812 321.94921875 319.64453125 c 0,5,6
 325.39453125 339.188476562 325.39453125 339.188476562 311.98046875 355.474609375 c 128,-1,7
 298.56640625 371.760742188 298.56640625 371.760742188 279.0234375 371.760742188 c 2,8,-1
 174.791015625 371.760742188 l 1,0,-1
245.639648438 477.998046875 m 2,9,10
 301.44140625 477.998046875 301.44140625 477.998046875 341.728515625 460.958007812 c 128,-1,11
 382.016601562 443.918945312 382.016601562 443.918945312 400.271484375 417.990234375 c 128,-1,12
 418.52734375 392.0625 418.52734375 392.0625 425.27734375 366.748046875 c 128,-1,13
 432.028320312 341.43359375 432.028320312 341.43359375 428.186523438 319.64453125 c 0,14,15
 420.6875 277.116210938 420.6875 277.116210938 394.284179688 246.264648438 c 128,-1,16
 367.879882812 215.413085938 367.879882812 215.413085938 329.62890625 215.413085938 c 1,17,18
 352.6796875 215.413085938 352.6796875 215.413085938 375.291015625 181.65625 c 128,-1,19
 397.90234375 147.8984375 397.90234375 147.8984375 391.428710938 111.180664062 c 2,20,-1
 372.696289062 4.943359375 l 1,21,-1
 266.458984375 4.943359375 l 1,22,-1
 285.19140625 111.180664062 l 2,23,24
 288.63671875 130.723632812 288.63671875 130.723632812 275.22265625 147.010742188 c 128,-1,25
 261.80859375 163.296875 261.80859375 163.296875 242.265625 163.296875 c 2,26,-1
 138.033203125 163.296875 l 1,27,-1
 110.111328125 4.943359375 l 1,28,-1
 3.8740234375 4.943359375 l 1,29,-1
 87.2861328125 477.998046875 l 1,30,-1
 245.639648438 477.998046875 l 2,9,10
EndSplineSet
Validated: 33
EndChar

StartChar: s
Encoding: 115 115 63
Width: 434
VWidth: 1000
GlyphClass: 1
Flags: W
LayerCount: 2
Fore
SplineSet
22.298828125 109.70703125 m 1,0,-1
 233.09765625 109.70703125 l 2,1,2
 252.859375 109.70703125 252.859375 109.70703125 272.231445312 126.17578125 c 128,-1,3
 291.604492188 142.64453125 291.604492188 142.64453125 295.088867188 162.40625 c 128,-1,4
 298.573242188 182.168945312 298.573242188 182.168945312 285.008789062 198.637695312 c 128,-1,5
 271.444335938 215.106445312 271.444335938 215.106445312 251.681640625 215.106445312 c 2,6,-1
 198.981445312 215.106445312 l 2,7,8
 124.32421875 215.106445312 124.32421875 215.106445312 88.12109375 246.397460938 c 128,-1,9
 51.91796875 277.6875 51.91796875 277.6875 59.4677734375 320.505859375 c 2,10,-1
 68.759765625 373.205078125 l 2,11,12
 76.310546875 416.0234375 76.310546875 416.0234375 123.547851562 447.314453125 c 128,-1,13
 170.786132812 478.604492188 170.786132812 478.604492188 245.443359375 478.604492188 c 2,14,-1
 298.143554688 478.604492188 l 2,15,16
 334.881835938 478.604492188 334.881835938 478.604492188 360.552734375 466.252929688 c 128,-1,17
 386.223632812 453.901367188 386.223632812 453.901367188 396.359375 439.903320312 c 128,-1,18
 406.49609375 425.904296875 406.49609375 425.904296875 418.685546875 403.671875 c 128,-1,19
 430.875 381.439453125 430.875 381.439453125 437.657226562 373.205078125 c 1,20,-1
 226.858398438 373.205078125 l 2,21,22
 174.159179688 373.205078125 174.159179688 373.205078125 169.513671875 346.85546875 c 128,-1,23
 164.8671875 320.505859375 164.8671875 320.505859375 217.56640625 320.505859375 c 2,24,-1
 270.266601562 320.505859375 l 2,25,26
 347.434570312 320.505859375 347.434570312 320.505859375 381.65625 285.098632812 c 128,-1,27
 415.87890625 249.69140625 415.87890625 249.69140625 405.134765625 188.756835938 c 2,28,-1
 395.841796875 136.056640625 l 2,29,30
 385.09765625 75.123046875 385.09765625 75.123046875 338.388671875 39.71484375 c 128,-1,31
 291.6796875 4.3076171875 291.6796875 4.3076171875 214.512695312 4.3076171875 c 2,32,-1
 161.8125 4.3076171875 l 2,33,34
 125.075195312 4.3076171875 125.075195312 4.3076171875 99.404296875 16.6591796875 c 128,-1,35
 73.7333984375 29.0107421875 73.7333984375 29.0107421875 63.5966796875 43.0087890625 c 128,-1,36
 53.4599609375 57.0078125 53.4599609375 57.0078125 41.2705078125 79.240234375 c 128,-1,37
 29.0810546875 101.47265625 29.0810546875 101.47265625 22.298828125 109.70703125 c 1,0,-1
EndSplineSet
Validated: 33
EndChar

StartChar: t
Encoding: 116 116 64
Width: 380
VWidth: 1000
GlyphClass: 1
Flags: W
LayerCount: 2
Fore
SplineSet
212.776367188 3.3076171875 m 1,0,-1
 107.377929688 3.3076171875 l 1,1,-1
 172.424804688 372.205078125 l 1,2,-1
 67.025390625 372.205078125 l 1,3,-1
 85.6103515625 477.604492188 l 1,4,-1
 401.807617188 477.604492188 l 1,5,-1
 383.22265625 372.205078125 l 1,6,-1
 277.823242188 372.205078125 l 1,7,-1
 212.776367188 3.3076171875 l 1,0,-1
EndSplineSet
Validated: 1
EndChar

StartChar: u
Encoding: 117 117 65
Width: 432
VWidth: 1000
GlyphClass: 1
Flags: W
LayerCount: 2
Fore
SplineSet
190.807617188 479.603515625 m 1,0,-1
 84.9638671875 479.603515625 l 1,1,-1
 28.974609375 162.073242188 l 2,2,3
 0.98046875 3.310546875 0.98046875 3.310546875 159.744140625 3.30859375 c 2,4,-1
 212.666015625 3.30859375 l 2,5,6
 371.430664062 3.30859375 371.430664062 3.30859375 399.42578125 162.073242188 c 2,7,-1
 455.415039062 479.603515625 l 1,8,-1
 349.571289062 479.603515625 l 1,9,-1
 293.58203125 162.073242188 l 2,10,11
 290.08203125 142.227539062 290.08203125 142.227539062 270.62890625 125.689453125 c 128,-1,12
 251.174804688 109.15234375 251.174804688 109.15234375 231.329101562 109.15234375 c 2,13,-1
 178.407226562 109.15234375 l 2,14,15
 158.561523438 109.15234375 158.561523438 109.15234375 144.940429688 125.689453125 c 128,-1,16
 131.318359375 142.227539062 131.318359375 142.227539062 134.818359375 162.073242188 c 2,17,-1
 190.807617188 479.603515625 l 1,0,-1
EndSplineSet
Validated: 41
EndChar

StartChar: v
Encoding: 118 118 66
Width: 432
VWidth: 1000
GlyphClass: 1
Flags: W
LayerCount: 2
Fore
SplineSet
238.923828125 4.30859375 m 1,0,-1
 134.69140625 4.30859375 l 1,1,-1
 64.2490234375 355.090820312 l 1,2,-1
 85.80859375 477.36328125 l 1,3,-1
 192.045898438 477.36328125 l 1,4,-1
 164.124023438 319.009765625 l 1,5,-1
 205.540039062 110.545898438 l 1,6,-1
 320.47265625 319.009765625 l 1,7,-1
 348.39453125 477.36328125 l 1,8,-1
 454.630859375 477.36328125 l 1,9,-1
 433.071289062 355.090820312 l 1,10,-1
 238.923828125 4.30859375 l 1,0,-1
EndSplineSet
Validated: 1
EndChar

StartChar: w
Encoding: 119 119 67
Width: 643
VWidth: 1000
GlyphClass: 1
Flags: W
LayerCount: 2
Fore
SplineSet
365.814453125 267.806640625 m 1,0,-1
 437.098632812 373.205078125 l 1,1,-1
 455.68359375 478.604492188 l 1,2,-1
 350.284179688 478.604492188 l 1,3,-1
 322.407226562 320.505859375 l 1,4,-1
 206.1875 109.70703125 l 1,5,-1
 164.30859375 320.505859375 l 1,6,-1
 192.185546875 478.604492188 l 1,7,-1
 86.7861328125 478.604492188 l 1,8,-1
 68.201171875 373.205078125 l 1,9,-1
 161.25390625 4.3076171875 l 1,10,-1
 213.953125 4.3076171875 l 1,11,-1
 320.879882812 162.40625 l 1,12,-1
 372.052734375 4.3076171875 l 1,13,-1
 424.751953125 4.3076171875 l 1,14,-1
 647.896484375 373.205078125 l 1,15,-1
 666.481445312 478.604492188 l 1,16,-1
 561.08203125 478.604492188 l 1,17,-1
 533.205078125 320.505859375 l 1,18,-1
 416.987304688 109.70703125 l 1,19,-1
 365.814453125 267.806640625 l 1,0,-1
EndSplineSet
Validated: 9
EndChar

StartChar: x
Encoding: 120 120 68
Width: 433
VWidth: 1000
GlyphClass: 1
Flags: W
LayerCount: 2
Fore
SplineSet
121.493164062 83.357421875 m 1,0,-1
 107.5546875 4.3076171875 l 1,1,-1
 2.1552734375 4.3076171875 l 1,2,-1
 16.09375 83.357421875 l 1,3,-1
 202.069335938 241.456054688 l 1,4,-1
 71.84765625 399.555664062 l 1,5,-1
 85.7861328125 478.604492188 l 1,6,-1
 191.185546875 478.604492188 l 1,7,-1
 177.247070312 399.555664062 l 1,8,-1
 242.357421875 320.505859375 l 1,9,-1
 335.345703125 399.555664062 l 1,10,-1
 349.284179688 478.604492188 l 1,11,-1
 454.68359375 478.604492188 l 1,12,-1
 440.745117188 399.555664062 l 1,13,-1
 254.768554688 241.456054688 l 1,14,-1
 384.991210938 83.357421875 l 1,15,-1
 371.052734375 4.3076171875 l 1,16,-1
 265.653320312 4.3076171875 l 1,17,-1
 279.591796875 83.357421875 l 1,18,-1
 214.48046875 162.40625 l 1,19,-1
 121.493164062 83.357421875 l 1,0,-1
EndSplineSet
Validated: 1
EndChar

StartChar: y
Encoding: 121 121 69
Width: 485
VWidth: 1000
GlyphClass: 1
Flags: W
LayerCount: 2
Fore
SplineSet
264.974609375 2.7021484375 m 1,0,-1
 159.575195312 2.7021484375 l 1,1,-1
 196.745117188 213.501953125 l 1,2,3
 38.6455078125 213.501953125 38.6455078125 213.501953125 66.5234375 371.600585938 c 2,4,-1
 85.1083984375 477 l 1,5,-1
 190.5078125 477 l 1,6,-1
 171.922851562 371.600585938 l 2,7,8
 168.438476562 351.837890625 168.438476562 351.837890625 182.002929688 335.370117188 c 128,-1,9
 195.567382812 318.901367188 195.567382812 318.901367188 215.329101562 318.901367188 c 2,10,-1
 320.728515625 318.901367188 l 2,11,12
 340.491210938 318.901367188 340.491210938 318.901367188 359.864257812 335.370117188 c 128,-1,13
 379.237304688 351.838867188 379.237304688 351.838867188 382.721679688 371.600585938 c 2,14,-1
 401.306640625 477 l 1,15,-1
 506.705078125 477 l 1,16,-1
 488.120117188 371.600585938 l 2,17,18
 460.243164062 213.501953125 460.243164062 213.501953125 302.14453125 213.501953125 c 1,19,-1
 264.974609375 2.7021484375 l 1,0,-1
EndSplineSet
Validated: 33
EndChar

StartChar: z
Encoding: 122 122 70
Width: 430
VWidth: 1000
GlyphClass: 1
Flags: W
LayerCount: 2
Fore
SplineSet
387.958984375 108.1015625 m 1,0,-1
 369.374023438 2.7021484375 l 1,1,-1
 0.4765625 2.7021484375 l 1,2,-1
 23.70703125 134.451171875 l 1,3,-1
 302.671875 371.600585938 l 1,4,-1
 65.5234375 371.600585938 l 1,5,-1
 84.1083984375 477 l 1,6,-1
 453.005859375 477 l 1,7,-1
 439.06640625 397.950195312 l 1,8,-1
 98.1103515625 108.1015625 l 1,9,-1
 387.958984375 108.1015625 l 1,0,-1
EndSplineSet
Validated: 1
EndChar
